STARTFONT 2.1
COMMENT 
COMMENT Converted from TrueType font "cour.ttf" by "ttf2bdf.exe 2.2".
COMMENT 
FONT -FreeType-Courier New-Medium-R-Normal--21-120-128-128-P-98-ISO10646-1
SIZE 12 128 128
FONTBOUNDINGBOX 15 70 -1 -12
STARTPROPERTIES 27
FAMILY_NAME "Courier New"
DEFAULT_CHAR -1
FOUNDRY "FreeType"
COPYRIGHT "Typeface © The Monotype Corporation plc. Data © The Monotype Corporation plc/Type Solutions Inc. 1990-1994. All Rights Reserved"
CODEPAGE "MS Windows 1250 Central European"
ENC_MODE 2
CREATION_YEAR 2001
WEIGHT_NAME "Medium"
SLANT "R"
SETWIDTH_NAME "Normal"
SPACING "P"
HI_VERSION 1
FONTNAME_REGISTRY "-"
CHARSET_REGISTRY "ISO10646"
CHARSET_ENCODING "1"
BREAK_CHAR 32
PIXEL_SIZE 21
POINT_SIZE 120
FONT_ASCENT 30
FONT_DESCENT 6
RESOLUTION_X 128
RESOLUTION_Y 128
AVERAGE_WIDTH 98
X_HEIGHT 15
CAP_HEIGHT 23
_TTF_FONTFILE "cour.ttf"
_TTF_PSNAME "CourierNewPSMT"
ENDPROPERTIES
CHARS 191
STARTCHAR 0020.uni0020
ENCODING 32
SWIDTH 562 0
DWIDTH 12 0
BBX 0 0 0 0
BITMAP
ENDCHAR
STARTCHAR 0021.uni0021
ENCODING 33
SWIDTH 609 0
DWIDTH 13 0
BBX 5 46 4 0
BITMAP
7000
7000
7000
7000
7000
7000
7000
7000
7000
7000
7000
7000
7000
7000
7000
7000
7000
7000
7000
7000
7000
7000
7000
7000
7000
7000
7000
7000
7000
7000
7000
7000
0000
0000
0000
0000
7000
7000
F800
F800
F800
F800
F800
F800
7000
7000
ENDCHAR
STARTCHAR 0022.uni0022
ENCODING 34
SWIDTH 609 0
DWIDTH 13 0
BBX 11 16 1 30
BITMAP
FBE0
FBE0
FBE0
FBE0
FBE0
FBE0
71C0
71C0
71C0
71C0
71C0
71C0
2080
2080
2080
2080
ENDCHAR
STARTCHAR 0023.uni0023
ENCODING 35
SWIDTH 609 0
DWIDTH 13 0
BBX 14 42 -1 -4
BITMAP
0E38
0E38
0E38
0E38
0E38
0E38
0E38
0E38
0E38
0E38
7FFC
7FFC
7FFC
7FFC
7FFC
7FFC
1C70
1C70
1C70
1C70
1C70
1C70
1C70
1C70
FFF8
FFF8
FFF8
FFF8
FFF8
FFF8
38E0
38E0
38E0
38E0
38E0
38E0
38E0
38E0
38E0
38E0
38E0
38E0
ENDCHAR
STARTCHAR 0024.uni0024
ENCODING 36
SWIDTH 609 0
DWIDTH 13 0
BBX 13 64 0 -8
BITMAP
0D80
0D80
0D80
0D80
0D80
0D80
0D80
0D80
0D80
0D80
0F80
0F80
3FE0
3FE0
7DF0
7DF0
FDF8
FDF8
EDB8
EDB8
ED80
ED80
ED80
ED80
FD80
FD80
7D80
7D80
3F80
3F80
0F80
0F80
0FE0
0FE0
0FF0
0FF0
0DF0
0DF0
0DF8
0DF8
0DB8
0DB8
EDB8
EDB8
EDB8
EDB8
FDF8
FDF8
7DF0
7DF0
7FF0
7FF0
3FE0
3FE0
0F80
0F80
0D80
0D80
0D80
0D80
0D80
0D80
0D80
0D80
ENDCHAR
STARTCHAR 0025.uni0025
ENCODING 37
SWIDTH 609 0
DWIDTH 13 0
BBX 15 38 -1 -2
BITMAP
1C00
1C00
3E00
3E00
7738
7738
6338
6338
7778
7778
3EF0
3EF0
1CE0
1CE0
01C0
01C0
03C0
03C0
0780
0780
0700
0700
0F00
0F00
1E38
1E38
1C7C
1C7C
38EE
38EE
78C6
78C6
F0EE
F0EE
E07C
E07C
6038
6038
ENDCHAR
STARTCHAR 0026.uni0026
ENCODING 38
SWIDTH 609 0
DWIDTH 13 0
BBX 13 46 0 0
BITMAP
1E00
1E00
3F00
3F00
7F80
7F80
73C0
73C0
E1C0
E1C0
E1C0
E1C0
E1C0
E1C0
F380
F380
7F80
7F80
7F00
7F00
3E00
3E00
3C38
3C38
3C38
3C38
3E70
3E70
7F70
7F70
77E0
77E0
E3E0
E3E0
E1C0
E1C0
E1C0
E1C0
F3E0
F3E0
7FF8
7FF8
3FF8
3FF8
1E38
1E38
ENDCHAR
STARTCHAR 0027.uni0027
ENCODING 39
SWIDTH 609 0
DWIDTH 13 0
BBX 5 16 4 30
BITMAP
F800
F800
F800
F800
F800
F800
7000
7000
7000
7000
7000
7000
2000
2000
2000
2000
ENDCHAR
STARTCHAR 0028.uni0028
ENCODING 40
SWIDTH 609 0
DWIDTH 13 0
BBX 5 58 5 -6
BITMAP
1800
1800
3800
3800
3800
3800
3800
3800
7000
7000
7000
7000
7000
7000
7000
7000
E000
E000
E000
E000
E000
E000
E000
E000
E000
E000
E000
E000
E000
E000
E000
E000
E000
E000
E000
E000
E000
E000
E000
E000
E000
E000
7000
7000
7000
7000
7000
7000
7000
7000
3800
3800
3800
3800
3800
3800
1800
1800
ENDCHAR
STARTCHAR 0029.uni0029
ENCODING 41
SWIDTH 609 0
DWIDTH 13 0
BBX 5 58 5 -6
BITMAP
C000
C000
E000
E000
E000
E000
E000
E000
7000
7000
7000
7000
7000
7000
7000
7000
3800
3800
3800
3800
3800
3800
3800
3800
3800
3800
3800
3800
3800
3800
3800
3800
3800
3800
3800
3800
3800
3800
3800
3800
3800
3800
7000
7000
7000
7000
7000
7000
7000
7000
E000
E000
E000
E000
E000
E000
C000
C000
ENDCHAR
STARTCHAR 002A.uni002A
ENCODING 42
SWIDTH 609 0
DWIDTH 13 0
BBX 11 22 1 9
BITMAP
0E00
CE60
CE60
6EC0
6EC0
3F80
3F80
1F00
1F00
FFE0
FFE0
FFE0
FFE0
1F00
1F00
3F80
3F80
6EC0
6EC0
CE60
CE60
0E00
ENDCHAR
STARTCHAR 002B.uni002B
ENCODING 43
SWIDTH 609 0
DWIDTH 13 0
BBX 11 26 1 2
BITMAP
0E00
0E00
0E00
0E00
0E00
0E00
0E00
0E00
0E00
0E00
FFE0
FFE0
FFE0
FFE0
FFE0
FFE0
0E00
0E00
0E00
0E00
0E00
0E00
0E00
0E00
0E00
0E00
ENDCHAR
STARTCHAR 002C.uni002C
ENCODING 44
SWIDTH 609 0
DWIDTH 13 0
BBX 8 20 0 -8
BITMAP
1F00
1F00
1F00
1F00
1F00
1F00
1E00
1E00
3C00
3C00
3C00
3C00
7800
7800
7000
7000
F000
F000
E000
E000
ENDCHAR
STARTCHAR 002D.uni002D
ENCODING 45
SWIDTH 609 0
DWIDTH 13 0
BBX 11 8 1 14
BITMAP
FFE0
FFE0
FFE0
FFE0
FFE0
FFE0
FFE0
FFE0
ENDCHAR
STARTCHAR 002E.uni002E
ENCODING 46
SWIDTH 609 0
DWIDTH 13 0
BBX 5 10 4 0
BITMAP
7000
7000
F800
F800
F800
F800
F800
F800
7000
7000
ENDCHAR
STARTCHAR 002F.uni002F
ENCODING 47
SWIDTH 609 0
DWIDTH 13 0
BBX 10 36 1 0
BITMAP
01C0
01C0
01C0
01C0
03C0
03C0
0380
0380
0780
0780
0700
0700
0700
0700
0E00
0E00
0E00
0E00
1C00
1C00
1C00
1C00
3800
3800
3800
3800
7000
7000
7000
7000
F000
F000
E000
E000
E000
E000
ENDCHAR
STARTCHAR 0030.uni0030
ENCODING 48
SWIDTH 609 0
DWIDTH 13 0
BBX 13 46 0 0
BITMAP
1FC0
1FC0
3FE0
3FE0
7FF0
7FF0
78F0
78F0
F078
F078
E038
E038
E038
E038
E038
E038
E038
E038
E038
E038
E038
E038
E038
E038
E038
E038
E038
E038
E038
E038
E038
E038
E038
E038
E038
E038
F078
F078
78F0
78F0
7FF0
7FF0
3FE0
3FE0
1FC0
1FC0
ENDCHAR
STARTCHAR 0031.uni0031
ENCODING 49
SWIDTH 609 0
DWIDTH 13 0
BBX 11 46 0 0
BITMAP
0F00
0F00
0F00
0F00
1F00
1F00
1F00
1F00
3F00
3F00
3700
3700
7700
7700
6700
6700
E700
E700
C700
C700
0700
0700
0700
0700
0700
0700
0700
0700
0700
0700
0700
0700
0700
0700
0700
0700
0700
0700
0700
0700
0700
0700
3FE0
3FE0
3FE0
3FE0
ENDCHAR
STARTCHAR 0032.uni0032
ENCODING 50
SWIDTH 609 0
DWIDTH 13 0
BBX 13 46 0 0
BITMAP
0F80
0F80
1FC0
1FC0
3FE0
3FE0
78F0
78F0
7070
7070
F078
F078
E038
E038
0038
0038
0078
0078
00F0
00F0
01E0
01E0
03C0
03C0
0380
0380
0780
0780
0F00
0F00
1E00
1E00
1C00
1C00
3C00
3C00
7818
7818
F018
F018
FFF8
FFF8
FFF8
FFF8
FFF8
FFF8
ENDCHAR
STARTCHAR 0033.uni0033
ENCODING 51
SWIDTH 609 0
DWIDTH 13 0
BBX 13 46 0 0
BITMAP
0F80
0F80
3FE0
3FE0
7FF0
7FF0
78F0
78F0
F078
F078
0038
0038
0038
0038
0038
0038
0078
0078
00F0
00F0
03F0
03F0
03E0
03E0
03E0
03E0
00F0
00F0
0078
0078
0038
0038
0038
0038
0038
0038
F078
F078
78F0
78F0
7FF0
7FF0
3FE0
3FE0
0F80
0F80
ENDCHAR
STARTCHAR 0034.uni0034
ENCODING 52
SWIDTH 609 0
DWIDTH 13 0
BBX 13 46 0 0
BITMAP
00F0
00F0
00F0
00F0
01E0
01E0
03E0
03E0
03E0
03E0
07E0
07E0
0FE0
0FE0
0EE0
0EE0
1EE0
1EE0
3CE0
3CE0
38E0
38E0
70E0
70E0
FFF8
FFF8
FFF8
FFF8
FFF8
FFF8
00E0
00E0
00E0
00E0
00E0
00E0
00E0
00E0
00E0
00E0
00E0
00E0
01F0
01F0
01F0
01F0
ENDCHAR
STARTCHAR 0035.uni0035
ENCODING 53
SWIDTH 609 0
DWIDTH 13 0
BBX 13 46 0 0
BITMAP
FFF8
FFF8
FFF8
FFF8
FFF8
FFF8
E000
E000
E000
E000
E000
E000
E000
E000
E000
E000
EF80
EF80
FFE0
FFE0
FFF0
FFF0
F8F0
F8F0
F078
F078
E038
E038
0038
0038
0038
0038
0038
0038
E038
E038
F078
F078
F8F0
F8F0
7FF0
7FF0
3FE0
3FE0
0F80
0F80
ENDCHAR
STARTCHAR 0036.uni0036
ENCODING 54
SWIDTH 609 0
DWIDTH 13 0
BBX 13 46 0 0
BITMAP
0F80
0F80
3FE0
3FE0
7FF0
7FF0
78F8
78F8
F078
F078
E038
E038
E000
E000
E000
E000
E000
E000
E000
E000
EF80
EF80
FFE0
FFE0
FFE0
FFE0
F8F0
F8F0
F078
F078
E038
E038
E038
E038
E038
E038
F078
F078
78F0
78F0
7FF0
7FF0
3FE0
3FE0
0F80
0F80
ENDCHAR
STARTCHAR 0037.uni0037
ENCODING 55
SWIDTH 609 0
DWIDTH 13 0
BBX 13 46 0 0
BITMAP
FFF8
FFF8
FFF8
FFF8
FFF8
FFF8
C070
C070
C0F0
C0F0
00E0
00E0
00E0
00E0
01C0
01C0
01C0
01C0
03C0
03C0
0380
0380
0380
0380
0380
0380
0700
0700
0700
0700
0700
0700
0E00
0E00
0E00
0E00
0E00
0E00
1C00
1C00
1C00
1C00
3E00
3E00
3E00
3E00
ENDCHAR
STARTCHAR 0038.uni0038
ENCODING 56
SWIDTH 609 0
DWIDTH 13 0
BBX 13 46 0 0
BITMAP
0F80
0F80
3FE0
3FE0
7FF0
7FF0
78F0
78F0
F078
F078
E038
E038
E038
E038
E038
E038
F078
F078
78F0
78F0
7FF0
7FF0
3FE0
3FE0
3FE0
3FE0
78F0
78F0
F078
F078
E038
E038
E038
E038
E038
E038
F078
F078
78F0
78F0
7FF0
7FF0
3FE0
3FE0
0F80
0F80
ENDCHAR
STARTCHAR 0039.uni0039
ENCODING 57
SWIDTH 609 0
DWIDTH 13 0
BBX 13 46 0 0
BITMAP
0F80
0F80
3FE0
3FE0
7FF0
7FF0
78F0
78F0
F078
F078
E038
E038
E038
E038
E038
E038
F078
F078
78F8
78F8
3FF8
3FF8
3FF8
3FF8
0FB8
0FB8
0038
0038
0038
0038
0038
0038
0038
0038
E038
E038
F078
F078
F8F0
F8F0
7FF0
7FF0
3FE0
3FE0
0F80
0F80
ENDCHAR
STARTCHAR 003A.uni003A
ENCODING 58
SWIDTH 609 0
DWIDTH 13 0
BBX 5 26 4 4
BITMAP
7000
7000
F800
F800
F800
F800
F800
F800
7000
7000
0000
0000
0000
0000
0000
0000
7000
7000
F800
F800
F800
F800
F800
F800
7000
7000
ENDCHAR
STARTCHAR 003B.uni003B
ENCODING 59
SWIDTH 609 0
DWIDTH 13 0
BBX 8 36 0 -8
BITMAP
0E00
0E00
1F00
1F00
1F00
1F00
1F00
1F00
0E00
0E00
0000
0000
0000
0000
0000
0000
1F00
1F00
1F00
1F00
1F00
1F00
1E00
1E00
3C00
3C00
3C00
3C00
7800
7800
7000
7000
F000
F000
E000
E000
ENDCHAR
STARTCHAR 003C.uni003C
ENCODING 60
SWIDTH 609 0
DWIDTH 13 0
BBX 13 30 0 0
BITMAP
0008
0008
0038
0038
00F8
00F8
03F0
03F0
0FC0
0FC0
3F00
3F00
FC00
FC00
F000
F000
FC00
FC00
3F00
3F00
0FC0
0FC0
03F0
03F0
00F8
00F8
0038
0038
0008
0008
ENDCHAR
STARTCHAR 003D.uni003D
ENCODING 61
SWIDTH 609 0
DWIDTH 13 0
BBX 11 22 1 8
BITMAP
FFE0
FFE0
FFE0
FFE0
FFE0
FFE0
FFE0
FFE0
0000
0000
0000
0000
0000
0000
FFE0
FFE0
FFE0
FFE0
FFE0
FFE0
FFE0
FFE0
ENDCHAR
STARTCHAR 003E.uni003E
ENCODING 62
SWIDTH 609 0
DWIDTH 13 0
BBX 13 30 0 0
BITMAP
8000
8000
E000
E000
F800
F800
7E00
7E00
1F80
1F80
07E0
07E0
01F8
01F8
0078
0078
01F8
01F8
07E0
07E0
1F80
1F80
7E00
7E00
F800
F800
E000
E000
8000
8000
ENDCHAR
STARTCHAR 003F.uni003F
ENCODING 63
SWIDTH 609 0
DWIDTH 13 0
BBX 13 46 0 0
BITMAP
0F80
0F80
3FE0
3FE0
7FF0
7FF0
78F0
78F0
F078
F078
E038
E038
0038
0038
0038
0038
0078
0078
00F0
00F0
03F0
03F0
07E0
07E0
07E0
07E0
0700
0700
0700
0700
0700
0700
0000
0000
0000
0000
0700
0700
0F80
0F80
0F80
0F80
0F80
0F80
0700
0700
ENDCHAR
STARTCHAR 0040.uni0040
ENCODING 64
SWIDTH 609 0
DWIDTH 13 0
BBX 13 38 0 0
BITMAP
0F80
0F80
3FC0
3FC0
7FE0
7FE0
79F0
79F0
F0F0
F0F0
F3F8
F3F8
E7F8
E7F8
E738
E738
E618
E618
E618
E618
E738
E738
E7F8
E7F8
E3F0
E3F0
E1E0
E1E0
F000
F000
F800
F800
7FC0
7FC0
3FC0
3FC0
1FC0
1FC0
ENDCHAR
STARTCHAR 0041.uni0041
ENCODING 65
SWIDTH 609 0
DWIDTH 13 0
BBX 15 46 -1 0
BITMAP
0380
0380
0380
0380
0380
0380
07C0
07C0
07C0
07C0
07C0
07C0
07C0
07C0
0EE0
0EE0
0EE0
0EE0
0EE0
0EE0
0EE0
0EE0
1C70
1C70
1C70
1C70
1C70
1C70
1C70
1C70
3FF8
3FF8
3FF8
3FF8
3FF8
3FF8
701C
701C
701C
701C
701C
701C
F83E
F83E
F83E
F83E
ENDCHAR
STARTCHAR 0042.uni0042
ENCODING 66
SWIDTH 609 0
DWIDTH 13 0
BBX 13 46 0 0
BITMAP
FF00
FF00
FF80
FF80
7FC0
7FC0
71E0
71E0
70E0
70E0
70E0
70E0
70E0
70E0
71E0
71E0
7FC0
7FC0
7F80
7F80
7FE0
7FE0
70F0
70F0
7078
7078
7038
7038
7038
7038
7038
7038
7038
7038
7038
7038
7078
7078
70F0
70F0
7FF0
7FF0
FFE0
FFE0
FF80
FF80
ENDCHAR
STARTCHAR 0043.uni0043
ENCODING 67
SWIDTH 609 0
DWIDTH 13 0
BBX 13 46 0 0
BITMAP
0700
0700
1FC0
1FC0
3FE0
3FE0
38E0
38E0
78F0
78F0
7070
7070
7078
7078
E038
E038
E000
E000
E000
E000
E000
E000
E000
E000
E000
E000
E000
E000
E000
E000
E038
E038
7078
7078
7070
7070
78F0
78F0
38E0
38E0
3FE0
3FE0
1FC0
1FC0
0700
0700
ENDCHAR
STARTCHAR 0044.uni0044
ENCODING 68
SWIDTH 609 0
DWIDTH 13 0
BBX 13 46 0 0
BITMAP
FF00
FF00
FFC0
FFC0
7FE0
7FE0
70E0
70E0
70F0
70F0
7070
7070
7070
7070
7038
7038
7038
7038
7038
7038
7038
7038
7038
7038
7038
7038
7038
7038
7038
7038
7038
7038
7070
7070
7070
7070
70F0
70F0
70E0
70E0
7FE0
7FE0
FFC0
FFC0
FF00
FF00
ENDCHAR
STARTCHAR 0045.uni0045
ENCODING 69
SWIDTH 609 0
DWIDTH 13 0
BBX 13 46 0 0
BITMAP
FFF8
FFF8
FFF8
FFF8
7818
7818
7818
7818
7800
7800
7800
7800
7800
7800
7800
7800
7860
7860
7FE0
7FE0
7FE0
7FE0
7FE0
7FE0
7860
7860
7860
7860
7800
7800
7800
7800
7800
7800
7800
7800
7818
7818
7818
7818
7FF8
7FF8
FFF8
FFF8
FFF8
FFF8
ENDCHAR
STARTCHAR 0046.uni0046
ENCODING 70
SWIDTH 609 0
DWIDTH 13 0
BBX 13 46 0 0
BITMAP
FFF8
FFF8
FFF8
FFF8
7818
7818
7818
7818
7800
7800
7800
7800
7800
7800
7800
7800
7860
7860
7FE0
7FE0
7FE0
7FE0
7FE0
7FE0
7860
7860
7860
7860
7800
7800
7800
7800
7800
7800
7800
7800
7800
7800
7800
7800
7800
7800
FE00
FE00
FE00
FE00
ENDCHAR
STARTCHAR 0047.uni0047
ENCODING 71
SWIDTH 609 0
DWIDTH 13 0
BBX 13 46 0 0
BITMAP
0700
0700
1FC0
1FC0
3FE0
3FE0
38E0
38E0
78F0
78F0
7070
7070
7070
7070
E038
E038
E038
E038
E000
E000
E000
E000
E000
E000
E000
E000
E3F8
E3F8
E3F8
E3F8
E3F8
E3F8
7070
7070
7070
7070
78F0
78F0
38E0
38E0
3FE0
3FE0
1FC0
1FC0
0700
0700
ENDCHAR
STARTCHAR 0048.uni0048
ENCODING 72
SWIDTH 609 0
DWIDTH 13 0
BBX 13 46 0 0
BITMAP
F8F8
F8F8
F8F8
F8F8
7070
7070
7070
7070
7070
7070
7070
7070
7070
7070
7070
7070
7070
7070
7070
7070
7FF0
7FF0
7FF0
7FF0
7FF0
7FF0
7070
7070
7070
7070
7070
7070
7070
7070
7070
7070
7070
7070
7070
7070
7070
7070
F8F8
F8F8
F8F8
F8F8
ENDCHAR
STARTCHAR 0049.uni0049
ENCODING 73
SWIDTH 609 0
DWIDTH 13 0
BBX 13 46 0 0
BITMAP
FFF8
FFF8
FFF8
FFF8
0700
0700
0700
0700
0700
0700
0700
0700
0700
0700
0700
0700
0700
0700
0700
0700
0700
0700
0700
0700
0700
0700
0700
0700
0700
0700
0700
0700
0700
0700
0700
0700
0700
0700
0700
0700
0700
0700
FFF8
FFF8
FFF8
FFF8
ENDCHAR
STARTCHAR 004A.uni004A
ENCODING 74
SWIDTH 609 0
DWIDTH 13 0
BBX 13 46 0 0
BITMAP
FFF8
FFF8
FFF8
FFF8
FFF8
FFF8
E038
E038
E038
E038
E038
E038
0038
0038
0038
0038
0038
0038
0038
0038
0038
0038
0038
0038
0038
0038
0038
0038
0038
0038
E038
E038
E038
E038
E038
E038
F078
F078
F8F8
F8F8
7FF0
7FF0
3FE0
3FE0
1FC0
1FC0
ENDCHAR
STARTCHAR 004B.uni004B
ENCODING 75
SWIDTH 609 0
DWIDTH 13 0
BBX 13 46 0 0
BITMAP
F878
F878
F878
F878
7078
7078
7070
7070
70E0
70E0
71E0
71E0
71C0
71C0
73C0
73C0
7380
7380
7780
7780
7780
7780
7FC0
7FC0
7FC0
7FC0
7DC0
7DC0
7CE0
7CE0
78E0
78E0
70E0
70E0
7070
7070
7070
7070
7070
7070
7078
7078
F878
F878
F878
F878
ENDCHAR
STARTCHAR 004C.uni004C
ENCODING 76
SWIDTH 609 0
DWIDTH 13 0
BBX 13 46 0 0
BITMAP
FE00
FE00
FE00
FE00
7800
7800
7800
7800
7800
7800
7800
7800
7800
7800
7800
7800
7800
7800
7800
7800
7800
7800
7800
7800
7800
7800
7800
7800
7800
7800
7800
7800
7800
7800
7800
7800
7818
7818
7818
7818
FFF8
FFF8
FFF8
FFF8
FFF8
FFF8
ENDCHAR
STARTCHAR 004D.uni004D
ENCODING 77
SWIDTH 609 0
DWIDTH 13 0
BBX 13 46 0 0
BITMAP
F8F8
F8F8
F8F8
F8F8
7070
7070
7070
7070
78F0
78F0
78F0
78F0
7FF0
7FF0
7FF0
7FF0
7FF0
7FF0
7770
7770
7770
7770
7770
7770
7270
7270
7070
7070
7070
7070
7070
7070
7070
7070
7070
7070
7070
7070
7070
7070
7070
7070
F8F8
F8F8
F8F8
F8F8
ENDCHAR
STARTCHAR 004E.uni004E
ENCODING 78
SWIDTH 609 0
DWIDTH 13 0
BBX 13 46 0 0
BITMAP
F8F8
F8F8
F8F8
F8F8
7070
7070
7070
7070
7870
7870
7870
7870
7C70
7C70
7C70
7C70
7E70
7E70
7E70
7E70
7770
7770
7770
7770
73F0
73F0
73F0
73F0
71F0
71F0
71F0
71F0
70F0
70F0
70F0
70F0
7070
7070
7070
7070
7070
7070
F8F8
F8F8
F8F8
F8F8
ENDCHAR
STARTCHAR 004F.uni004F
ENCODING 79
SWIDTH 609 0
DWIDTH 13 0
BBX 13 46 0 0
BITMAP
0700
0700
1FC0
1FC0
3FE0
3FE0
38E0
38E0
78F0
78F0
7070
7070
7070
7070
E038
E038
E038
E038
E038
E038
E038
E038
E038
E038
E038
E038
E038
E038
E038
E038
E038
E038
7070
7070
7070
7070
78F0
78F0
38E0
38E0
3FE0
3FE0
1FC0
1FC0
0700
0700
ENDCHAR
STARTCHAR 0050.uni0050
ENCODING 80
SWIDTH 609 0
DWIDTH 13 0
BBX 13 46 0 0
BITMAP
FF80
FF80
FFE0
FFE0
7FF0
7FF0
70F0
70F0
7078
7078
7038
7038
7038
7038
7038
7038
7078
7078
70F0
70F0
7FF0
7FF0
7FE0
7FE0
7F80
7F80
7000
7000
7000
7000
7000
7000
7000
7000
7000
7000
7000
7000
7000
7000
7000
7000
F800
F800
F800
F800
ENDCHAR
STARTCHAR 0051.uni0051
ENCODING 81
SWIDTH 609 0
DWIDTH 13 0
BBX 13 46 0 0
BITMAP
0700
0700
1FC0
1FC0
3FE0
3FE0
38E0
38E0
78F0
78F0
7070
7070
7070
7070
E038
E038
E038
E038
E038
E038
E038
E038
E038
E038
E038
E038
E038
E038
E738
E738
E738
E738
77F0
77F0
73F0
73F0
79F0
79F0
38F0
38F0
3FF8
3FF8
1FF8
1FF8
0738
0738
ENDCHAR
STARTCHAR 0052.uni0052
ENCODING 82
SWIDTH 609 0
DWIDTH 13 0
BBX 13 46 0 0
BITMAP
FF80
FF80
FFE0
FFE0
7FF0
7FF0
70F0
70F0
7078
7078
7038
7038
7038
7038
7038
7038
7078
7078
70F0
70F0
7FF0
7FF0
7FE0
7FE0
7F80
7F80
7380
7380
71C0
71C0
71C0
71C0
71E0
71E0
70E0
70E0
70E0
70E0
7070
7070
7070
7070
F8F8
F8F8
F8F8
F8F8
ENDCHAR
STARTCHAR 0053.uni0053
ENCODING 83
SWIDTH 609 0
DWIDTH 13 0
BBX 13 46 0 0
BITMAP
0F80
0F80
3FE0
3FE0
7FF0
7FF0
F078
F078
E038
E038
E000
E000
E000
E000
F000
F000
7C00
7C00
3F00
3F00
0F80
0F80
07E0
07E0
03F0
03F0
00F0
00F0
0078
0078
0038
0038
E038
E038
E038
E038
F078
F078
78F0
78F0
7FF0
7FF0
3FE0
3FE0
0F80
0F80
ENDCHAR
STARTCHAR 0054.uni0054
ENCODING 84
SWIDTH 609 0
DWIDTH 13 0
BBX 13 46 0 0
BITMAP
FFF8
FFF8
FFF8
FFF8
FFF8
FFF8
C718
C718
C718
C718
0700
0700
0700
0700
0700
0700
0700
0700
0700
0700
0700
0700
0700
0700
0700
0700
0700
0700
0700
0700
0700
0700
0700
0700
0700
0700
0700
0700
0700
0700
0700
0700
1FC0
1FC0
1FC0
1FC0
ENDCHAR
STARTCHAR 0055.uni0055
ENCODING 85
SWIDTH 609 0
DWIDTH 13 0
BBX 15 46 -1 0
BITMAP
F83E
F83E
F83E
F83E
701C
701C
701C
701C
701C
701C
701C
701C
701C
701C
701C
701C
701C
701C
701C
701C
701C
701C
701C
701C
701C
701C
701C
701C
701C
701C
701C
701C
701C
701C
701C
701C
783C
783C
7C7C
7C7C
3FF8
3FF8
1FF0
1FF0
0FE0
0FE0
ENDCHAR
STARTCHAR 0056.uni0056
ENCODING 86
SWIDTH 609 0
DWIDTH 13 0
BBX 15 46 -1 0
BITMAP
F83E
F83E
F83E
F83E
701C
701C
703C
703C
3838
3838
3838
3838
3838
3838
3878
3878
1C70
1C70
1C70
1C70
1C70
1C70
1EF0
1EF0
0EE0
0EE0
0EE0
0EE0
0EE0
0EE0
0FC0
0FC0
07C0
07C0
07C0
07C0
07C0
07C0
0780
0780
0380
0380
0380
0380
0380
0380
ENDCHAR
STARTCHAR 0057.uni0057
ENCODING 87
SWIDTH 609 0
DWIDTH 13 0
BBX 15 46 -1 0
BITMAP
F83E
F83E
F83E
F83E
701C
701C
701C
701C
701C
701C
701C
701C
701C
701C
3838
3838
3838
3838
3838
3838
3838
3838
3BB8
3BB8
3BB8
3BB8
3BB8
3BB8
3FF8
3FF8
3FF8
3FF8
3FF8
3FF8
1FF0
1FF0
1EF0
1EF0
1EF0
1EF0
1EF0
1EF0
1C70
1C70
1C70
1C70
ENDCHAR
STARTCHAR 0058.uni0058
ENCODING 88
SWIDTH 609 0
DWIDTH 13 0
BBX 14 46 -1 0
BITMAP
F87C
F87C
F03C
F03C
7878
7878
3870
3870
3CF0
3CF0
1CE0
1CE0
1FE0
1FE0
0FC0
0FC0
0FC0
0FC0
0780
0780
0780
0780
0780
0780
0780
0780
0FC0
0FC0
0FC0
0FC0
1FE0
1FE0
1CE0
1CE0
3CF0
3CF0
3870
3870
7878
7878
7038
7038
F03C
F03C
F87C
F87C
ENDCHAR
STARTCHAR 0059.uni0059
ENCODING 89
SWIDTH 609 0
DWIDTH 13 0
BBX 15 46 -1 0
BITMAP
F83E
F83E
F83E
F83E
701C
701C
3838
3838
3C78
3C78
1EF0
1EF0
0FE0
0FE0
0FE0
0FE0
07C0
07C0
0380
0380
0380
0380
0380
0380
0380
0380
0380
0380
0380
0380
0380
0380
0380
0380
0380
0380
0380
0380
0380
0380
0380
0380
0FE0
0FE0
0FE0
0FE0
ENDCHAR
STARTCHAR 005A.uni005A
ENCODING 90
SWIDTH 609 0
DWIDTH 13 0
BBX 13 46 0 0
BITMAP
FFF8
FFF8
FFF8
FFF8
FFF8
FFF8
C070
C070
C0F0
C0F0
00E0
00E0
01E0
01E0
01C0
01C0
03C0
03C0
0380
0380
0780
0780
0700
0700
0F00
0F00
0E00
0E00
1E00
1E00
1C00
1C00
3C00
3C00
3800
3800
7818
7818
7018
7018
FFF8
FFF8
FFF8
FFF8
FFF8
FFF8
ENDCHAR
STARTCHAR 005B.uni005B
ENCODING 91
SWIDTH 609 0
DWIDTH 13 0
BBX 8 52 4 -6
BITMAP
FF00
FF00
FF00
FF00
FF00
FF00
E000
E000
E000
E000
E000
E000
E000
E000
E000
E000
E000
E000
E000
E000
E000
E000
E000
E000
E000
E000
E000
E000
E000
E000
E000
E000
E000
E000
E000
E000
E000
E000
E000
E000
E000
E000
E000
E000
E000
E000
FF00
FF00
FF00
FF00
FF00
FF00
ENDCHAR
STARTCHAR 005C.uni005C
ENCODING 92
SWIDTH 609 0
DWIDTH 13 0
BBX 10 36 1 0
BITMAP
E000
E000
E000
E000
F000
F000
7000
7000
7800
7800
3800
3800
3800
3800
1C00
1C00
1C00
1C00
0E00
0E00
0E00
0E00
0700
0700
0700
0700
0380
0380
0380
0380
03C0
03C0
01C0
01C0
01C0
01C0
ENDCHAR
STARTCHAR 005D.uni005D
ENCODING 93
SWIDTH 609 0
DWIDTH 13 0
BBX 8 52 1 -6
BITMAP
FF00
FF00
FF00
FF00
FF00
FF00
0700
0700
0700
0700
0700
0700
0700
0700
0700
0700
0700
0700
0700
0700
0700
0700
0700
0700
0700
0700
0700
0700
0700
0700
0700
0700
0700
0700
0700
0700
0700
0700
0700
0700
0700
0700
0700
0700
0700
0700
FF00
FF00
FF00
FF00
FF00
FF00
ENDCHAR
STARTCHAR 005E.uni005E
ENCODING 94
SWIDTH 609 0
DWIDTH 13 0
BBX 13 16 0 28
BITMAP
0700
0700
0F80
0F80
1FC0
1FC0
3FE0
3FE0
7DF0
7DF0
F8F8
F8F8
F078
F078
E038
E038
ENDCHAR
STARTCHAR 005F.uni005F
ENCODING 95
SWIDTH 609 0
DWIDTH 13 0
BBX 13 6 0 -12
BITMAP
FFF8
FFF8
FFF8
FFF8
FFF8
FFF8
ENDCHAR
STARTCHAR 0060.uni0060
ENCODING 96
SWIDTH 609 0
DWIDTH 13 0
BBX 7 12 3 34
BITMAP
E000
E000
F000
F000
F800
F800
3E00
3E00
1E00
1E00
0E00
0E00
ENDCHAR
STARTCHAR 0061.uni0061
ENCODING 97
SWIDTH 609 0
DWIDTH 13 0
BBX 13 30 0 0
BITMAP
1FC0
1FC0
3FE0
3FE0
70F0
70F0
E070
E070
C070
C070
1F70
1F70
3FF0
3FF0
7FF0
7FF0
F0F0
F0F0
E070
E070
E070
E070
F0F0
F0F0
7FF0
7FF0
3FF8
3FF8
1F38
1F38
ENDCHAR
STARTCHAR 0062.uni0062
ENCODING 98
SWIDTH 609 0
DWIDTH 13 0
BBX 13 46 0 0
BITMAP
FC00
FC00
FC00
FC00
7000
7000
7000
7000
7000
7000
7000
7000
7000
7000
7000
7000
7780
7780
7FE0
7FE0
7FF0
7FF0
7870
7870
7878
7878
7038
7038
7038
7038
7038
7038
7038
7038
7038
7038
7878
7878
7870
7870
7FF0
7FF0
FFE0
FFE0
FF80
FF80
ENDCHAR
STARTCHAR 0063.uni0063
ENCODING 99
SWIDTH 609 0
DWIDTH 13 0
BBX 13 30 0 0
BITMAP
0F80
0F80
1FC0
1FC0
3FE0
3FE0
78F0
78F0
7078
7078
E038
E038
E000
E000
E000
E000
E000
E000
E038
E038
7078
7078
78F0
78F0
3FE0
3FE0
1FC0
1FC0
0F80
0F80
ENDCHAR
STARTCHAR 0064.uni0064
ENCODING 100
SWIDTH 609 0
DWIDTH 13 0
BBX 13 46 0 0
BITMAP
01F8
01F8
01F8
01F8
0070
0070
0070
0070
0070
0070
0070
0070
0070
0070
0070
0070
0F70
0F70
3FF0
3FF0
7FF0
7FF0
70F0
70F0
F0F0
F0F0
E070
E070
E070
E070
E070
E070
E070
E070
E070
E070
F0F0
F0F0
70F0
70F0
7FF0
7FF0
3FF8
3FF8
0FF8
0FF8
ENDCHAR
STARTCHAR 0065.uni0065
ENCODING 101
SWIDTH 609 0
DWIDTH 13 0
BBX 13 30 0 0
BITMAP
0F80
0F80
1FC0
1FC0
3FE0
3FE0
78F0
78F0
7070
7070
E038
E038
FFF8
FFF8
FFF8
FFF8
FFF8
FFF8
E000
E000
7000
7000
78F0
78F0
3FE0
3FE0
1FC0
1FC0
0F80
0F80
ENDCHAR
STARTCHAR 0066.uni0066
ENCODING 102
SWIDTH 609 0
DWIDTH 13 0
BBX 9 46 2 0
BITMAP
0F80
0F80
1F80
1F80
3F80
3F80
3C00
3C00
3800
3800
3800
3800
3800
3800
3800
3800
FF80
FF80
FF80
FF80
3800
3800
3800
3800
3800
3800
3800
3800
3800
3800
3800
3800
3800
3800
3800
3800
3800
3800
3800
3800
3800
3800
FF80
FF80
FF80
FF80
ENDCHAR
STARTCHAR 0067.uni0067
ENCODING 103
SWIDTH 609 0
DWIDTH 13 0
BBX 13 42 0 -12
BITMAP
0FB8
0FB8
1FF8
1FF8
3FF8
3FF8
78F8
78F8
7078
7078
E038
E038
E038
E038
E038
E038
E038
E038
E038
E038
7078
7078
78F8
78F8
3FF8
3FF8
1FF8
1FF8
0FB8
0FB8
0038
0038
0078
0078
00F8
00F8
7FF0
7FF0
7FE0
7FE0
7FC0
7FC0
ENDCHAR
STARTCHAR 0068.uni0068
ENCODING 104
SWIDTH 609 0
DWIDTH 13 0
BBX 15 46 -1 0
BITMAP
F800
F800
F800
F800
7000
7000
7000
7000
7000
7000
7000
7000
7000
7000
7000
7000
77C0
77C0
7FE0
7FE0
7FF0
7FF0
7C78
7C78
7838
7838
701C
701C
701C
701C
701C
701C
701C
701C
701C
701C
701C
701C
701C
701C
701C
701C
F83E
F83E
F83E
F83E
ENDCHAR
STARTCHAR 0069.uni0069
ENCODING 105
SWIDTH 609 0
DWIDTH 13 0
BBX 9 40 2 0
BITMAP
1C00
1C00
1C00
1C00
1C00
1C00
0000
0000
0000
0000
FC00
FC00
FC00
FC00
1C00
1C00
1C00
1C00
1C00
1C00
1C00
1C00
1C00
1C00
1C00
1C00
1C00
1C00
1C00
1C00
1C00
1C00
1C00
1C00
1C00
1C00
FF80
FF80
FF80
FF80
ENDCHAR
STARTCHAR 006A.uni006A
ENCODING 106
SWIDTH 609 0
DWIDTH 13 0
BBX 7 52 1 -12
BITMAP
0E00
0E00
0E00
0E00
0E00
0E00
0000
0000
0000
0000
FE00
FE00
FE00
FE00
FE00
FE00
0E00
0E00
0E00
0E00
0E00
0E00
0E00
0E00
0E00
0E00
0E00
0E00
0E00
0E00
0E00
0E00
0E00
0E00
0E00
0E00
0E00
0E00
0E00
0E00
0E00
0E00
0E00
0E00
1E00
1E00
FC00
FC00
F800
F800
F000
F000
ENDCHAR
STARTCHAR 006B.uni006B
ENCODING 107
SWIDTH 609 0
DWIDTH 13 0
BBX 14 46 0 0
BITMAP
F800
F800
F800
F800
7000
7000
7000
7000
7000
7000
7000
7000
7000
7000
7000
7000
7070
7070
70F0
70F0
79F0
79F0
7FC0
7FC0
7F00
7F00
7E00
7E00
7F00
7F00
7780
7780
73C0
73C0
71E0
71E0
70F0
70F0
7078
7078
7038
7038
F87C
F87C
F87C
F87C
ENDCHAR
STARTCHAR 006C.uni006C
ENCODING 108
SWIDTH 609 0
DWIDTH 13 0
BBX 9 46 2 0
BITMAP
FC00
FC00
FC00
FC00
1C00
1C00
1C00
1C00
1C00
1C00
1C00
1C00
1C00
1C00
1C00
1C00
1C00
1C00
1C00
1C00
1C00
1C00
1C00
1C00
1C00
1C00
1C00
1C00
1C00
1C00
1C00
1C00
1C00
1C00
1C00
1C00
1C00
1C00
1C00
1C00
1C00
1C00
FF80
FF80
FF80
FF80
ENDCHAR
STARTCHAR 006D.uni006D
ENCODING 109
SWIDTH 609 0
DWIDTH 13 0
BBX 15 30 -1 0
BITMAP
EC60
EC60
FFF0
FFF0
7FF0
7FF0
7FF8
7FF8
7398
7398
739C
739C
739C
739C
739C
739C
739C
739C
739C
739C
739C
739C
739C
739C
739C
739C
FB9E
FB9E
FB9E
FB9E
ENDCHAR
STARTCHAR 006E.uni006E
ENCODING 110
SWIDTH 609 0
DWIDTH 13 0
BBX 15 30 -1 0
BITMAP
F7C0
F7C0
FFE0
FFE0
7FF0
7FF0
7C78
7C78
7838
7838
701C
701C
701C
701C
701C
701C
701C
701C
701C
701C
701C
701C
701C
701C
701C
701C
F83E
F83E
F83E
F83E
ENDCHAR
STARTCHAR 006F.uni006F
ENCODING 111
SWIDTH 609 0
DWIDTH 13 0
BBX 13 30 0 0
BITMAP
0F80
0F80
1FC0
1FC0
3FE0
3FE0
78F0
78F0
7070
7070
E038
E038
E038
E038
E038
E038
E038
E038
E038
E038
7070
7070
78F0
78F0
3FE0
3FE0
1FC0
1FC0
0F80
0F80
ENDCHAR
STARTCHAR 0070.uni0070
ENCODING 112
SWIDTH 609 0
DWIDTH 13 0
BBX 14 42 -1 -12
BITMAP
F7C0
F7C0
FFE0
FFE0
7FF0
7FF0
7C78
7C78
7838
7838
701C
701C
701C
701C
701C
701C
701C
701C
701C
701C
7838
7838
7C78
7C78
7FF0
7FF0
7FE0
7FE0
77C0
77C0
7000
7000
7000
7000
7000
7000
7000
7000
F800
F800
F800
F800
ENDCHAR
STARTCHAR 0071.uni0071
ENCODING 113
SWIDTH 609 0
DWIDTH 13 0
BBX 14 42 0 -12
BITMAP
0FBC
0FBC
1FFC
1FFC
3FF8
3FF8
78F8
78F8
7078
7078
E038
E038
E038
E038
E038
E038
E038
E038
E038
E038
7078
7078
78F8
78F8
3FF8
3FF8
1FF8
1FF8
0FB8
0FB8
0038
0038
0038
0038
0038
0038
0038
0038
003C
003C
003C
003C
ENDCHAR
STARTCHAR 0072.uni0072
ENCODING 114
SWIDTH 609 0
DWIDTH 13 0
BBX 14 30 -1 0
BITMAP
F7E0
F7E0
FFF0
FFF0
7FF8
7FF8
7C3C
7C3C
781C
781C
7000
7000
7000
7000
7000
7000
7000
7000
7000
7000
7000
7000
7000
7000
7000
7000
F800
F800
F800
F800
ENDCHAR
STARTCHAR 0073.uni0073
ENCODING 115
SWIDTH 609 0
DWIDTH 13 0
BBX 13 30 0 0
BITMAP
1FC0
1FC0
7FF8
7FF8
FFF8
FFF8
F038
F038
F000
F000
7C00
7C00
3F80
3F80
1FE0
1FE0
07F0
07F0
01F8
01F8
E078
E078
F078
F078
7FF0
7FF0
3FE0
3FE0
1F80
1F80
ENDCHAR
STARTCHAR 0074.uni0074
ENCODING 116
SWIDTH 609 0
DWIDTH 13 0
BBX 14 46 -1 0
BITMAP
3800
3800
3800
3800
3800
3800
3800
3800
3800
3800
3800
3800
3800
3800
3800
3800
FFF0
FFF0
FFF0
FFF0
FFF0
FFF0
3800
3800
3800
3800
3800
3800
3800
3800
3800
3800
3800
3800
381C
381C
3C3C
3C3C
3C38
3C38
3FF8
3FF8
1FF0
1FF0
0FC0
0FC0
ENDCHAR
STARTCHAR 0075.uni0075
ENCODING 117
SWIDTH 609 0
DWIDTH 13 0
BBX 15 30 -1 0
BITMAP
F03C
F03C
F03C
F03C
701C
701C
701C
701C
701C
701C
701C
701C
701C
701C
701C
701C
701C
701C
701C
701C
383C
383C
3C7C
3C7C
1FFC
1FFC
0FFE
0FFE
07DE
07DE
ENDCHAR
STARTCHAR 0076.uni0076
ENCODING 118
SWIDTH 609 0
DWIDTH 13 0
BBX 15 30 -1 0
BITMAP
F83E
F83E
F83E
F83E
701C
701C
3838
3838
3838
3838
3838
3838
1C70
1C70
1C70
1C70
1C70
1C70
0EE0
0EE0
0EE0
0EE0
0EE0
0EE0
07C0
07C0
07C0
07C0
07C0
07C0
ENDCHAR
STARTCHAR 0077.uni0077
ENCODING 119
SWIDTH 609 0
DWIDTH 13 0
BBX 15 30 -1 0
BITMAP
F7DE
F7DE
F7DE
F7DE
638C
638C
739C
739C
739C
739C
3398
3398
3BB8
3BB8
3BB8
3BB8
3BB8
3BB8
1FF0
1FF0
1FF0
1FF0
1FF0
1FF0
1FF0
1FF0
0D60
0D60
0D60
0D60
ENDCHAR
STARTCHAR 0078.uni0078
ENCODING 120
SWIDTH 609 0
DWIDTH 13 0
BBX 14 30 -1 0
BITMAP
F87C
F87C
F03C
F03C
7878
7878
3CF0
3CF0
1FE0
1FE0
0FC0
0FC0
0780
0780
0780
0780
0FC0
0FC0
1FE0
1FE0
3CF0
3CF0
7878
7878
7038
7038
F87C
F87C
F87C
F87C
ENDCHAR
STARTCHAR 0079.uni0079
ENCODING 121
SWIDTH 609 0
DWIDTH 13 0
BBX 15 42 -1 -12
BITMAP
F83E
F83E
F83E
F83E
701C
701C
3838
3838
3838
3838
3838
3838
1C70
1C70
1C70
1C70
1C70
1C70
0EE0
0EE0
0EE0
0EE0
0EE0
0EE0
07C0
07C0
07C0
07C0
07C0
07C0
0380
0380
0380
0380
0380
0380
0700
0700
0F00
0F00
0F00
0F00
ENDCHAR
STARTCHAR 007A.uni007A
ENCODING 122
SWIDTH 609 0
DWIDTH 13 0
BBX 13 30 0 0
BITMAP
FFF8
FFF8
FFF8
FFF8
FFF8
FFF8
C0F0
C0F0
C1E0
C1E0
03C0
03C0
0780
0780
0F00
0F00
1E00
1E00
3C00
3C00
7818
7818
F018
F018
FFF8
FFF8
FFF8
FFF8
FFF8
FFF8
ENDCHAR
STARTCHAR 007B.uni007B
ENCODING 123
SWIDTH 609 0
DWIDTH 13 0
BBX 10 52 2 -6
BITMAP
0FC0
0FC0
1FC0
1FC0
3FC0
3FC0
3800
3800
3800
3800
3800
3800
3800
3800
3800
3800
3800
3800
3800
3800
7800
7800
F000
F000
F000
F000
F000
F000
7800
7800
3800
3800
3800
3800
3800
3800
3800
3800
3800
3800
3800
3800
3800
3800
3800
3800
3FC0
3FC0
1FC0
1FC0
0FC0
0FC0
ENDCHAR
STARTCHAR 007C.uni007C
ENCODING 124
SWIDTH 609 0
DWIDTH 13 0
BBX 3 46 5 0
BITMAP
E000
E000
E000
E000
E000
E000
E000
E000
E000
E000
E000
E000
E000
E000
E000
E000
E000
E000
E000
E000
E000
E000
E000
E000
E000
E000
E000
E000
E000
E000
E000
E000
E000
E000
E000
E000
E000
E000
E000
E000
E000
E000
E000
E000
E000
E000
ENDCHAR
STARTCHAR 007D.uni007D
ENCODING 125
SWIDTH 609 0
DWIDTH 13 0
BBX 10 52 1 -6
BITMAP
FC00
FC00
FE00
FE00
FF00
FF00
0700
0700
0700
0700
0700
0700
0700
0700
0700
0700
0700
0700
0700
0700
0780
0780
03C0
03C0
03C0
03C0
03C0
03C0
0780
0780
0700
0700
0700
0700
0700
0700
0700
0700
0700
0700
0700
0700
0700
0700
0700
0700
FF00
FF00
FE00
FE00
FC00
FC00
ENDCHAR
STARTCHAR 007E.uni007E
ENCODING 126
SWIDTH 609 0
DWIDTH 13 0
BBX 13 16 0 14
BITMAP
7C00
7C00
FE00
FE00
FF00
FF00
EF18
EF18
C7B8
C7B8
03F8
03F8
01F8
01F8
00F0
00F0
ENDCHAR
STARTCHAR 00A0.uni00A0
ENCODING 160
SWIDTH 562 0
DWIDTH 12 0
BBX 0 0 0 0
BITMAP
ENDCHAR
STARTCHAR 00A1.uni00A1
ENCODING 161
SWIDTH 609 0
DWIDTH 13 0
BBX 5 46 4 -10
BITMAP
7000
7000
F800
F800
F800
F800
F800
F800
7000
7000
0000
0000
0000
0000
7000
7000
7000
7000
7000
7000
7000
7000
7000
7000
7000
7000
7000
7000
7000
7000
7000
7000
7000
7000
7000
7000
7000
7000
7000
7000
7000
7000
7000
7000
7000
7000
ENDCHAR
STARTCHAR 00A2.uni00A2
ENCODING 162
SWIDTH 609 0
DWIDTH 13 0
BBX 13 58 0 -6
BITMAP
0700
0700
0700
0700
0700
0700
0700
0700
1FC0
1FC0
3FE0
3FE0
38E0
38E0
78F0
78F0
7070
7070
7078
7078
E038
E038
E000
E000
E000
E000
E000
E000
E000
E000
E000
E000
E000
E000
E000
E000
E038
E038
7078
7078
7070
7070
78F0
78F0
38E0
38E0
3FE0
3FE0
1FC0
1FC0
0700
0700
0700
0700
0700
0700
0700
0700
ENDCHAR
STARTCHAR 00A3.uni00A3
ENCODING 163
SWIDTH 609 0
DWIDTH 13 0
BBX 13 46 0 0
BITMAP
0E00
0E00
3F80
3F80
7FC0
7FC0
7BC0
7BC0
F1C0
F1C0
E1C0
E1C0
E000
E000
F000
F000
7800
7800
3C00
3C00
FFE0
FFE0
FFE0
FFE0
FFE0
FFE0
1C00
1C00
1C00
1C00
1C00
1C00
1C00
1C00
1C38
1C38
1C38
1C38
1E78
1E78
FFF8
FFF8
FFF0
FFF0
FFE0
FFE0
ENDCHAR
STARTCHAR 00A4.uni00A4
ENCODING 164
SWIDTH 562 0
DWIDTH 12 0
BBX 13 46 -1 0
BITMAP
0380
07C0
0FE0
0FE0
1FF0
1EF0
1C78
1C38
3C38
3C00
3800
3800
3800
3800
7000
7000
7000
7000
FF80
FF80
FF80
FF80
7000
7000
7000
7000
FF80
FF80
FF80
FF80
7000
7000
3800
3800
3800
3800
3C38
3C38
1C38
1E78
1E70
1FF0
0FE0
0FE0
07C0
0380
ENDCHAR
STARTCHAR 00A5.uni00A5
ENCODING 165
SWIDTH 609 0
DWIDTH 13 0
BBX 15 46 -1 0
BITMAP
F83E
F83E
F83E
F83E
701C
701C
3838
3838
3C78
3C78
1EF0
1EF0
0FE0
0FE0
0FE0
0FE0
07C0
07C0
0380
0380
3FF8
3FF8
3FF8
3FF8
0380
0380
0380
0380
3FF8
3FF8
3FF8
3FF8
0380
0380
0380
0380
0380
0380
0380
0380
0380
0380
0FE0
0FE0
0FE0
0FE0
ENDCHAR
STARTCHAR 00A6.uni00A6
ENCODING 166
SWIDTH 609 0
DWIDTH 13 0
BBX 3 42 5 0
BITMAP
E000
E000
E000
E000
E000
E000
E000
E000
E000
E000
E000
E000
E000
E000
E000
E000
E000
E000
0000
0000
0000
0000
0000
0000
E000
E000
E000
E000
E000
E000
E000
E000
E000
E000
E000
E000
E000
E000
E000
E000
E000
E000
ENDCHAR
STARTCHAR 00A7.uni00A7
ENCODING 167
SWIDTH 609 0
DWIDTH 13 0
BBX 13 46 0 0
BITMAP
0C00
0C00
3F00
3F00
7F80
7F80
73C0
73C0
E1C0
E1C0
E000
E000
FE00
FE00
FF00
FF00
FF80
FF80
F3C0
F3C0
F1E0
F1E0
78F0
78F0
3C78
3C78
1E78
1E78
0FF8
0FF8
07F8
07F8
03F8
03F8
0038
0038
1C38
1C38
1E70
1E70
0FF0
0FF0
07E0
07E0
0180
0180
ENDCHAR
STARTCHAR 00A8.uni00A8
ENCODING 168
SWIDTH 609 0
DWIDTH 13 0
BBX 11 8 1 30
BITMAP
60C0
60C0
F1E0
F1E0
F1E0
F1E0
60C0
60C0
ENDCHAR
STARTCHAR 00A9.uni00A9
ENCODING 169
SWIDTH 609 0
DWIDTH 13 0
BBX 15 38 -1 -2
BITMAP
07C0
07C0
1FF0
1FF0
3FF8
3FF8
3C78
3C78
783C
783C
701C
701C
E38E
E38E
E7CE
E7CE
E6CE
E6CE
E60E
E60E
E6CE
E6CE
E7CE
E7CE
E38E
E38E
701C
701C
783C
783C
3C78
3C78
3FF8
3FF8
1FF0
1FF0
07C0
07C0
ENDCHAR
STARTCHAR 00AA.uni00AA
ENCODING 170
SWIDTH 609 0
DWIDTH 13 0
BBX 7 16 3 14
BITMAP
7800
7800
FC00
FC00
0C00
0C00
7C00
7C00
FC00
FC00
CC00
CC00
FE00
FE00
7600
7600
ENDCHAR
STARTCHAR 00AB.uni00AB
ENCODING 171
SWIDTH 609 0
DWIDTH 13 0
BBX 11 26 0 4
BITMAP
38E0
38E0
38E0
38E0
38E0
38E0
71C0
71C0
71C0
71C0
E380
E380
E380
E380
F3C0
F3C0
71C0
71C0
71C0
71C0
38E0
38E0
38E0
38E0
38E0
38E0
ENDCHAR
STARTCHAR 00AC.uni00AC
ENCODING 172
SWIDTH 609 0
DWIDTH 13 0
BBX 10 14 1 10
BITMAP
FFC0
FFC0
FFC0
FFC0
FFC0
FFC0
01C0
01C0
01C0
01C0
01C0
01C0
01C0
01C0
ENDCHAR
STARTCHAR 00AD.uni00AD
ENCODING 173
SWIDTH 609 0
DWIDTH 13 0
BBX 9 6 2 14
BITMAP
FF80
FF80
FF80
FF80
FF80
FF80
ENDCHAR
STARTCHAR 00AE.uni00AE
ENCODING 174
SWIDTH 609 0
DWIDTH 13 0
BBX 15 38 -1 -2
BITMAP
07C0
07C0
1FF0
1FF0
3FF8
3FF8
3C78
3C78
783C
783C
701C
701C
E78E
E78E
E7CE
E7CE
E6CE
E6CE
E78E
E78E
E78E
E78E
E6CE
E6CE
E6CE
E6CE
701C
701C
783C
783C
3C78
3C78
3FF8
3FF8
1FF0
1FF0
07C0
07C0
ENDCHAR
STARTCHAR 00AF.uni00AF
ENCODING 175
SWIDTH 609 0
DWIDTH 13 0
BBX 13 6 0 40
BITMAP
FFF8
FFF8
FFF8
FFF8
FFF8
FFF8
ENDCHAR
STARTCHAR 00B0.uni00B0
ENCODING 176
SWIDTH 609 0
DWIDTH 13 0
BBX 7 14 3 32
BITMAP
3800
3800
7C00
7C00
EE00
EE00
C600
C600
EE00
EE00
7C00
7C00
3800
3800
ENDCHAR
STARTCHAR 00B1.uni00B1
ENCODING 177
SWIDTH 609 0
DWIDTH 13 0
BBX 9 28 2 6
BITMAP
1C00
1C00
1C00
1C00
1C00
1C00
FF80
FF80
FF80
FF80
FF80
FF80
1C00
1C00
1C00
1C00
1C00
1C00
0000
0000
0000
0000
FF80
FF80
FF80
FF80
FF80
FF80
ENDCHAR
STARTCHAR 00B2.uni00B2
ENCODING 178
SWIDTH 609 0
DWIDTH 13 0
BBX 7 22 4 18
BITMAP
3800
3800
7C00
7C00
EE00
EE00
C600
C600
0E00
0E00
0E00
0E00
1C00
1C00
3800
3800
7000
7000
FE00
FE00
FE00
FE00
ENDCHAR
STARTCHAR 00B3.uni00B3
ENCODING 179
SWIDTH 609 0
DWIDTH 13 0
BBX 7 22 4 18
BITMAP
3800
3800
7C00
7C00
EE00
EE00
C600
C600
1E00
1E00
1C00
1C00
1E00
1E00
C600
C600
EE00
EE00
FE00
FE00
7C00
7C00
ENDCHAR
STARTCHAR 00B4.uni00B4
ENCODING 180
SWIDTH 609 0
DWIDTH 13 0
BBX 5 10 4 36
BITMAP
3800
3800
7800
7800
F800
F800
F000
F000
E000
E000
ENDCHAR
STARTCHAR 00B5.uni00B5
ENCODING 181
SWIDTH 609 0
DWIDTH 13 0
BBX 15 40 -1 -10
BITMAP
F03C
F03C
F03C
F03C
701C
701C
701C
701C
701C
701C
701C
701C
701C
701C
701C
701C
701C
701C
701C
701C
783C
783C
7C7C
7C7C
7FFC
7FFC
7FFE
7FFE
77DE
77DE
7000
7000
7000
7000
7000
7000
7000
7000
7000
7000
ENDCHAR
STARTCHAR 00B6.uni00B6
ENCODING 182
SWIDTH 609 0
DWIDTH 13 0
BBX 15 46 -1 0
BITMAP
1FFE
1FFE
7FFE
7FFE
7FFE
7FFE
E71C
E71C
E71C
E71C
E71C
E71C
E71C
E71C
E71C
E71C
E71C
E71C
7F1C
7F1C
7F1C
7F1C
7F1C
7F1C
0F1C
0F1C
071C
071C
071C
071C
071C
071C
071C
071C
071C
071C
071C
071C
071C
071C
1F1E
1F1E
1F1E
1F1E
1F1E
1F1E
ENDCHAR
STARTCHAR 00B7.uni00B7
ENCODING 183
SWIDTH 609 0
DWIDTH 13 0
BBX 5 10 4 12
BITMAP
7000
7000
F800
F800
F800
F800
F800
F800
7000
7000
ENDCHAR
STARTCHAR 00B8.uni00B8
ENCODING 184
SWIDTH 609 0
DWIDTH 13 0
BBX 6 14 3 -10
BITMAP
3000
3000
3800
3800
3C00
3C00
0C00
0C00
FC00
FC00
FC00
FC00
FC00
FC00
ENDCHAR
STARTCHAR 00B9.uni00B9
ENCODING 185
SWIDTH 609 0
DWIDTH 13 0
BBX 7 22 4 18
BITMAP
3800
3800
7800
7800
F800
F800
D800
D800
1800
1800
1800
1800
1800
1800
1800
1800
1800
1800
7E00
7E00
7E00
7E00
ENDCHAR
STARTCHAR 00BA.uni00BA
ENCODING 186
SWIDTH 609 0
DWIDTH 13 0
BBX 8 16 2 28
BITMAP
3C00
3C00
7E00
7E00
E700
E700
C300
C300
C300
C300
E700
E700
7E00
7E00
3C00
3C00
ENDCHAR
STARTCHAR 00BB.uni00BB
ENCODING 187
SWIDTH 609 0
DWIDTH 13 0
BBX 11 26 0 4
BITMAP
E380
E380
E380
E380
E380
E380
71C0
71C0
71C0
71C0
38E0
38E0
38E0
38E0
79E0
79E0
71C0
71C0
71C0
71C0
E380
E380
E380
E380
E380
E380
ENDCHAR
STARTCHAR 00BC.uni00BC
ENCODING 188
SWIDTH 609 0
DWIDTH 13 0
BBX 13 46 0 0
BITMAP
3800
3800
7800
7800
F800
F800
D800
D800
1800
1800
1800
1800
1800
1800
1830
1830
1860
1860
7EC0
7EC0
7F80
7F80
0300
0300
0660
0660
0CE0
0CE0
19E0
19E0
33E0
33E0
6760
6760
CE60
CE60
0FF8
0FF8
0FF8
0FF8
0060
0060
0060
0060
0060
0060
ENDCHAR
STARTCHAR 00BD.uni00BD
ENCODING 189
SWIDTH 609 0
DWIDTH 13 0
BBX 13 46 0 0
BITMAP
3800
3800
7800
7800
F800
F800
D800
D800
1800
1800
1800
1800
1800
1800
1830
1830
1860
1860
7EC0
7EC0
7F80
7F80
0300
0300
06E0
06E0
0DF0
0DF0
1BB8
1BB8
3318
3318
6038
6038
C038
C038
0070
0070
00E0
00E0
01C0
01C0
03F8
03F8
03F8
03F8
ENDCHAR
STARTCHAR 00BE.uni00BE
ENCODING 190
SWIDTH 609 0
DWIDTH 13 0
BBX 13 46 0 0
BITMAP
3800
3800
7C00
7C00
EE00
EE00
C600
C600
1E00
1E00
1C00
1C00
1E00
1E00
C630
C630
EE60
EE60
FEC0
FEC0
7D80
7D80
0300
0300
0660
0660
0CE0
0CE0
19E0
19E0
33E0
33E0
6760
6760
CE60
CE60
0FF8
0FF8
0FF8
0FF8
0060
0060
0060
0060
0060
0060
ENDCHAR
STARTCHAR 00BF.uni00BF
ENCODING 191
SWIDTH 609 0
DWIDTH 13 0
BBX 13 46 0 -10
BITMAP
0700
0700
0F80
0F80
0F80
0F80
0F80
0F80
0700
0700
0000
0000
0000
0000
0700
0700
0700
0700
0700
0700
07E0
07E0
07E0
07E0
03F0
03F0
00F0
00F0
0078
0078
0038
0038
0038
0038
E038
E038
F078
F078
78F0
78F0
7FF0
7FF0
3FE0
3FE0
0F80
0F80
ENDCHAR
STARTCHAR 00C0.uni00C0
ENCODING 192
SWIDTH 609 0
DWIDTH 13 0
BBX 15 56 -1 0
BITMAP
0E00
0E00
0700
0700
0380
0380
0000
0000
0000
0000
0380
0380
0380
0380
0380
0380
07C0
07C0
07C0
07C0
07C0
07C0
07C0
07C0
0EE0
0EE0
0EE0
0EE0
0EE0
0EE0
0EE0
0EE0
1C70
1C70
1C70
1C70
1C70
1C70
1C70
1C70
3838
3838
3FF8
3FF8
3FF8
3FF8
7FFC
7FFC
701C
701C
701C
701C
FC7E
FC7E
FC7E
FC7E
ENDCHAR
STARTCHAR 00C1.uni00C1
ENCODING 193
SWIDTH 609 0
DWIDTH 13 0
BBX 15 56 -1 0
BITMAP
00E0
00E0
01C0
01C0
0380
0380
0000
0000
0000
0000
0380
0380
0380
0380
0380
0380
07C0
07C0
07C0
07C0
07C0
07C0
07C0
07C0
0EE0
0EE0
0EE0
0EE0
0EE0
0EE0
0EE0
0EE0
1C70
1C70
1C70
1C70
1C70
1C70
1C70
1C70
3838
3838
3FF8
3FF8
3FF8
3FF8
7FFC
7FFC
701C
701C
701C
701C
FC7E
FC7E
FC7E
FC7E
ENDCHAR
STARTCHAR 00C2.uni00C2
ENCODING 194
SWIDTH 609 0
DWIDTH 13 0
BBX 15 58 -1 0
BITMAP
0100
0100
0380
0380
07C0
07C0
0EE0
0EE0
1C70
1C70
1830
1830
0380
0380
0380
0380
0380
0380
07C0
07C0
07C0
07C0
07C0
07C0
07C0
07C0
0EE0
0EE0
0EE0
0EE0
0EE0
0EE0
0EE0
0EE0
1C70
1C70
1C70
1C70
1C70
1C70
1C70
1C70
3838
3838
3FF8
3FF8
3FF8
3FF8
7FFC
7FFC
701C
701C
701C
701C
FC7E
FC7E
FC7E
FC7E
ENDCHAR
STARTCHAR 00C3.uni00C3
ENCODING 195
SWIDTH 609 0
DWIDTH 13 0
BBX 15 58 -1 0
BITMAP
0E30
0E30
1F30
1F30
1BB0
1BB0
19F0
19F0
18E0
18E0
0000
0000
0380
0380
0380
0380
0380
0380
07C0
07C0
07C0
07C0
07C0
07C0
07C0
07C0
0EE0
0EE0
0EE0
0EE0
0EE0
0EE0
0EE0
0EE0
1C70
1C70
1C70
1C70
1C70
1C70
1C70
1C70
3838
3838
3FF8
3FF8
3FF8
3FF8
7FFC
7FFC
701C
701C
701C
701C
FC7E
FC7E
FC7E
FC7E
ENDCHAR
STARTCHAR 00C4.uni00C4
ENCODING 196
SWIDTH 609 0
DWIDTH 13 0
BBX 15 54 -1 0
BITMAP
1C70
1C70
1C70
1C70
1C70
1C70
0000
0000
0380
0380
0380
0380
0380
0380
07C0
07C0
07C0
07C0
07C0
07C0
07C0
07C0
0EE0
0EE0
0EE0
0EE0
0EE0
0EE0
0EE0
0EE0
1C70
1C70
1C70
1C70
1C70
1C70
1C70
1C70
3838
3838
3FF8
3FF8
3FF8
3FF8
7FFC
7FFC
701C
701C
701C
701C
FC7E
FC7E
FC7E
FC7E
ENDCHAR
STARTCHAR 00C5.uni00C5
ENCODING 197
SWIDTH 609 0
DWIDTH 13 0
BBX 15 58 -1 0
BITMAP
0380
0380
07C0
07C0
06C0
06C0
07C0
07C0
0380
0380
0000
0000
0380
0380
0380
0380
0380
0380
07C0
07C0
07C0
07C0
07C0
07C0
07C0
07C0
0EE0
0EE0
0EE0
0EE0
0EE0
0EE0
0EE0
0EE0
1C70
1C70
1C70
1C70
1C70
1C70
1C70
1C70
3838
3838
3FF8
3FF8
3FF8
3FF8
7FFC
7FFC
701C
701C
701C
701C
FC7E
FC7E
FC7E
FC7E
ENDCHAR
STARTCHAR 00C6.uni00C6
ENCODING 198
SWIDTH 609 0
DWIDTH 13 0
BBX 14 46 -1 0
BITMAP
03FC
03FC
07FC
07FC
07CC
07CC
07CC
07CC
07C0
07C0
0FC0
0FC0
0FC0
0FC0
0FC0
0FC0
0FC4
0FC4
1DFC
1DFC
1DFC
1DFC
1DFC
1DFC
1DFC
1DFC
1DC4
1DC4
39C0
39C0
39C0
39C0
3FC0
3FC0
3FC0
3FC0
7FCC
7FCC
71CC
71CC
71FC
71FC
E3FC
E3FC
E3FC
E3FC
ENDCHAR
STARTCHAR 00C7.uni00C7
ENCODING 199
SWIDTH 609 0
DWIDTH 13 0
BBX 13 58 0 -12
BITMAP
0700
0700
1FC0
1FC0
3FE0
3FE0
38E0
38E0
78F0
78F0
7070
7070
7078
7078
E038
E038
E000
E000
E000
E000
E000
E000
E000
E000
E000
E000
E000
E000
E000
E000
E038
E038
7078
7078
7070
7070
78F0
78F0
38E0
38E0
3FE0
3FE0
1FC0
1FC0
0F80
0F80
0380
0380
0300
0300
1980
1980
18C0
18C0
0DC0
0DC0
07C0
07C0
ENDCHAR
STARTCHAR 00C8.uni00C8
ENCODING 200
SWIDTH 609 0
DWIDTH 13 0
BBX 13 54 0 0
BITMAP
0E00
0E00
0700
0700
0380
0380
0000
0000
FFF8
FFF8
FFF8
FFF8
7818
7818
7818
7818
7800
7800
7800
7800
7800
7800
7800
7800
7860
7860
7FE0
7FE0
7FE0
7FE0
7FE0
7FE0
7860
7860
7860
7860
7800
7800
7800
7800
7800
7800
7800
7800
7818
7818
7818
7818
7FF8
7FF8
FFF8
FFF8
FFF8
FFF8
ENDCHAR
STARTCHAR 00C9.uni00C9
ENCODING 201
SWIDTH 609 0
DWIDTH 13 0
BBX 13 56 0 0
BITMAP
0380
0380
0700
0700
0E00
0E00
0000
0000
0000
0000
FFF8
FFF8
FFF8
FFF8
7818
7818
7818
7818
7800
7800
7800
7800
7800
7800
7800
7800
7860
7860
7FE0
7FE0
7FE0
7FE0
7FE0
7FE0
7860
7860
7860
7860
7800
7800
7800
7800
7800
7800
7800
7800
7818
7818
7818
7818
7FF8
7FF8
FFF8
FFF8
FFF8
FFF8
ENDCHAR
STARTCHAR 00CA.uni00CA
ENCODING 202
SWIDTH 609 0
DWIDTH 13 0
BBX 13 58 0 0
BITMAP
0200
0200
0700
0700
0F80
0F80
1DC0
1DC0
38E0
38E0
0000
0000
FFF8
FFF8
FFF8
FFF8
7818
7818
7818
7818
7800
7800
7800
7800
7800
7800
7800
7800
7860
7860
7FE0
7FE0
7FE0
7FE0
7FE0
7FE0
7860
7860
7860
7860
7800
7800
7800
7800
7800
7800
7800
7800
7818
7818
7818
7818
7FF8
7FF8
FFF8
FFF8
FFF8
FFF8
ENDCHAR
STARTCHAR 00CB.uni00CB
ENCODING 203
SWIDTH 609 0
DWIDTH 13 0
BBX 13 56 0 0
BITMAP
38E0
38E0
38E0
38E0
38E0
38E0
0000
0000
0000
0000
FFF8
FFF8
FFF8
FFF8
7818
7818
7818
7818
7800
7800
7800
7800
7800
7800
7800
7800
7860
7860
7FE0
7FE0
7FE0
7FE0
7FE0
7FE0
7860
7860
7860
7860
7800
7800
7800
7800
7800
7800
7800
7800
7818
7818
7818
7818
7FF8
7FF8
FFF8
FFF8
FFF8
FFF8
ENDCHAR
STARTCHAR 00CC.uni00CC
ENCODING 204
SWIDTH 609 0
DWIDTH 13 0
BBX 13 54 0 0
BITMAP
1C00
1C00
0E00
0E00
0700
0700
0000
0000
FFF8
FFF8
FFF8
FFF8
0700
0700
0700
0700
0700
0700
0700
0700
0700
0700
0700
0700
0700
0700
0700
0700
0700
0700
0700
0700
0700
0700
0700
0700
0700
0700
0700
0700
0700
0700
0700
0700
0700
0700
0700
0700
0700
0700
FFF8
FFF8
FFF8
FFF8
ENDCHAR
STARTCHAR 00CD.uni00CD
ENCODING 205
SWIDTH 609 0
DWIDTH 13 0
BBX 13 54 0 0
BITMAP
01C0
01C0
0380
0380
0700
0700
0000
0000
FFF8
FFF8
FFF8
FFF8
0700
0700
0700
0700
0700
0700
0700
0700
0700
0700
0700
0700
0700
0700
0700
0700
0700
0700
0700
0700
0700
0700
0700
0700
0700
0700
0700
0700
0700
0700
0700
0700
0700
0700
0700
0700
0700
0700
FFF8
FFF8
FFF8
FFF8
ENDCHAR
STARTCHAR 00CE.uni00CE
ENCODING 206
SWIDTH 609 0
DWIDTH 13 0
BBX 13 58 0 0
BITMAP
0200
0200
0700
0700
0F80
0F80
1DC0
1DC0
38E0
38E0
0000
0000
FFF8
FFF8
FFF8
FFF8
0700
0700
0700
0700
0700
0700
0700
0700
0700
0700
0700
0700
0700
0700
0700
0700
0700
0700
0700
0700
0700
0700
0700
0700
0700
0700
0700
0700
0700
0700
0700
0700
0700
0700
0700
0700
0700
0700
FFF8
FFF8
FFF8
FFF8
ENDCHAR
STARTCHAR 00CF.uni00CF
ENCODING 207
SWIDTH 609 0
DWIDTH 13 0
BBX 13 52 0 0
BITMAP
0D80
0D80
0D80
0D80
0000
0000
FFF8
FFF8
FFF8
FFF8
0700
0700
0700
0700
0700
0700
0700
0700
0700
0700
0700
0700
0700
0700
0700
0700
0700
0700
0700
0700
0700
0700
0700
0700
0700
0700
0700
0700
0700
0700
0700
0700
0700
0700
0700
0700
0700
0700
FFF8
FFF8
FFF8
FFF8
ENDCHAR
STARTCHAR 00D0.uni00D0
ENCODING 208
SWIDTH 609 0
DWIDTH 13 0
BBX 14 46 -1 0
BITMAP
7F80
7F80
7FE0
7FE0
3FF0
3FF0
3870
3870
3878
3878
3838
3838
3838
3838
381C
381C
381C
381C
381C
381C
FE1C
FE1C
FE1C
FE1C
FE1C
FE1C
381C
381C
381C
381C
381C
381C
3838
3838
3838
3838
3878
3878
3870
3870
3FF0
3FF0
7FE0
7FE0
7F80
7F80
ENDCHAR
STARTCHAR 00D1.uni00D1
ENCODING 209
SWIDTH 609 0
DWIDTH 13 0
BBX 13 58 0 0
BITMAP
1C60
1C60
3E60
3E60
3760
3760
33E0
33E0
31C0
31C0
0000
0000
0000
0000
F8F8
F8F8
F8F8
F8F8
7070
7070
7870
7870
7870
7870
7C70
7C70
7C70
7C70
7E70
7E70
7E70
7E70
7770
7770
7770
7770
73F0
73F0
73F0
73F0
71F0
71F0
71F0
71F0
70F0
70F0
70F0
70F0
7070
7070
7070
7070
7070
7070
F8F8
F8F8
F8F8
F8F8
ENDCHAR
STARTCHAR 00D2.uni00D2
ENCODING 210
SWIDTH 609 0
DWIDTH 13 0
BBX 13 54 0 0
BITMAP
1C00
1C00
0E00
0E00
0700
0700
0000
0000
0700
0700
1FC0
1FC0
3FE0
3FE0
38E0
38E0
78F0
78F0
7070
7070
7070
7070
E038
E038
E038
E038
E038
E038
E038
E038
E038
E038
E038
E038
E038
E038
E038
E038
E038
E038
7070
7070
7070
7070
78F0
78F0
38E0
38E0
3FE0
3FE0
1FC0
1FC0
0700
0700
ENDCHAR
STARTCHAR 00D3.uni00D3
ENCODING 211
SWIDTH 609 0
DWIDTH 13 0
BBX 13 56 0 0
BITMAP
00E0
00E0
01C0
01C0
0380
0380
0700
0700
0000
0000
0700
0700
1FC0
1FC0
3FE0
3FE0
38E0
38E0
78F0
78F0
7070
7070
7070
7070
E038
E038
E038
E038
E038
E038
E038
E038
E038
E038
E038
E038
E038
E038
E038
E038
E038
E038
7070
7070
7070
7070
78F0
78F0
38E0
38E0
3FE0
3FE0
1FC0
1FC0
0700
0700
ENDCHAR
STARTCHAR 00D4.uni00D4
ENCODING 212
SWIDTH 609 0
DWIDTH 13 0
BBX 13 58 0 0
BITMAP
0200
0200
0700
0700
0F80
0F80
1DC0
1DC0
38E0
38E0
0000
0000
0700
0700
1FC0
1FC0
3FE0
3FE0
38E0
38E0
78F0
78F0
7070
7070
7070
7070
E038
E038
E038
E038
E038
E038
E038
E038
E038
E038
E038
E038
E038
E038
E038
E038
E038
E038
7070
7070
7070
7070
78F0
78F0
38E0
38E0
3FE0
3FE0
1FC0
1FC0
0700
0700
ENDCHAR
STARTCHAR 00D5.uni00D5
ENCODING 213
SWIDTH 609 0
DWIDTH 13 0
BBX 13 56 0 0
BITMAP
0738
0738
0E70
0E70
1CE0
1CE0
39C0
39C0
0000
0000
0700
0700
1FC0
1FC0
3FE0
3FE0
38E0
38E0
78F0
78F0
7070
7070
7070
7070
E038
E038
E038
E038
E038
E038
E038
E038
E038
E038
E038
E038
E038
E038
E038
E038
E038
E038
7070
7070
7070
7070
78F0
78F0
38E0
38E0
3FE0
3FE0
1FC0
1FC0
0700
0700
ENDCHAR
STARTCHAR 00D6.uni00D6
ENCODING 214
SWIDTH 609 0
DWIDTH 13 0
BBX 13 54 0 0
BITMAP
38E0
38E0
38E0
38E0
38E0
38E0
0000
0000
0700
0700
1FC0
1FC0
3FE0
3FE0
38E0
38E0
78F0
78F0
7070
7070
7070
7070
E038
E038
E038
E038
E038
E038
E038
E038
E038
E038
E038
E038
E038
E038
E038
E038
E038
E038
7070
7070
7070
7070
78F0
78F0
38E0
38E0
3FE0
3FE0
1FC0
1FC0
0700
0700
ENDCHAR
STARTCHAR 00D7.uni00D7
ENCODING 215
SWIDTH 609 0
DWIDTH 13 0
BBX 11 24 1 4
BITMAP
E0E0
E0E0
F1E0
F1E0
FBE0
FBE0
7FC0
7FC0
3F80
3F80
1F00
1F00
1F00
1F00
3F80
3F80
7FC0
7FC0
FBE0
FBE0
F1E0
F1E0
E0E0
E0E0
ENDCHAR
STARTCHAR 00D8.uni00D8
ENCODING 216
SWIDTH 609 0
DWIDTH 13 0
BBX 13 30 0 0
BITMAP
0F98
0F98
1FD8
1FD8
3FF0
3FF0
78F0
78F0
70F0
70F0
E1F8
E1F8
E3B8
E3B8
E738
E738
EE38
EE38
FC38
FC38
7870
7870
78F0
78F0
7FE0
7FE0
DFC0
DFC0
CF80
CF80
ENDCHAR
STARTCHAR 00D9.uni00D9
ENCODING 217
SWIDTH 609 0
DWIDTH 13 0
BBX 15 56 -1 0
BITMAP
1C00
1C00
0E00
0E00
0700
0700
0380
0380
0000
0000
F83E
F83E
F83E
F83E
701C
701C
701C
701C
701C
701C
701C
701C
701C
701C
701C
701C
701C
701C
701C
701C
701C
701C
701C
701C
701C
701C
701C
701C
701C
701C
701C
701C
701C
701C
701C
701C
783C
783C
7C7C
7C7C
3FF8
3FF8
1FF0
1FF0
0FE0
0FE0
ENDCHAR
STARTCHAR 00DA.uni00DA
ENCODING 218
SWIDTH 609 0
DWIDTH 13 0
BBX 15 56 -1 0
BITMAP
00E0
00E0
01C0
01C0
0380
0380
0700
0700
0000
0000
F83E
F83E
F83E
F83E
701C
701C
701C
701C
701C
701C
701C
701C
701C
701C
701C
701C
701C
701C
701C
701C
701C
701C
701C
701C
701C
701C
701C
701C
701C
701C
701C
701C
701C
701C
701C
701C
783C
783C
7C7C
7C7C
3FF8
3FF8
1FF0
1FF0
0FE0
0FE0
ENDCHAR
STARTCHAR 00DB.uni00DB
ENCODING 219
SWIDTH 609 0
DWIDTH 13 0
BBX 15 56 -1 0
BITMAP
071C
071C
0E38
0E38
1C70
1C70
38E0
38E0
0000
0000
F83E
F83E
F83E
F83E
701C
701C
701C
701C
701C
701C
701C
701C
701C
701C
701C
701C
701C
701C
701C
701C
701C
701C
701C
701C
701C
701C
701C
701C
701C
701C
701C
701C
701C
701C
701C
701C
783C
783C
7C7C
7C7C
3FF8
3FF8
1FF0
1FF0
0FE0
0FE0
ENDCHAR
STARTCHAR 00DC.uni00DC
ENCODING 220
SWIDTH 609 0
DWIDTH 13 0
BBX 15 54 -1 0
BITMAP
1C70
1C70
1C70
1C70
1C70
1C70
0000
0000
F83E
F83E
F83E
F83E
701C
701C
701C
701C
701C
701C
701C
701C
701C
701C
701C
701C
701C
701C
701C
701C
701C
701C
701C
701C
701C
701C
701C
701C
701C
701C
701C
701C
701C
701C
701C
701C
783C
783C
7C7C
7C7C
3FF8
3FF8
1FF0
1FF0
0FE0
0FE0
ENDCHAR
STARTCHAR 00DD.uni00DD
ENCODING 221
SWIDTH 609 0
DWIDTH 13 0
BBX 15 54 -1 0
BITMAP
00E0
00E0
01C0
01C0
0380
0380
0000
0000
F83E
F83E
F83E
F83E
701C
701C
3838
3838
3C78
3C78
1EF0
1EF0
0FE0
0FE0
0FE0
0FE0
07C0
07C0
0380
0380
0380
0380
0380
0380
0380
0380
0380
0380
0380
0380
0380
0380
0380
0380
0380
0380
0380
0380
0380
0380
0380
0380
0FE0
0FE0
0FE0
0FE0
ENDCHAR
STARTCHAR 00DE.uni00DE
ENCODING 222
SWIDTH 609 0
DWIDTH 13 0
BBX 13 46 0 0
BITMAP
FF00
FF00
FF00
FF00
7000
7000
7000
7000
7000
7000
7F80
7F80
7FE0
7FE0
7FF0
7FF0
70F0
70F0
7078
7078
7038
7038
7038
7038
7038
7038
7078
7078
70F0
70F0
7FF0
7FF0
7FE0
7FE0
7F80
7F80
7000
7000
7000
7000
7000
7000
FF00
FF00
FF00
FF00
ENDCHAR
STARTCHAR 00DF.uni00DF
ENCODING 223
SWIDTH 609 0
DWIDTH 13 0
BBX 13 46 0 0
BITMAP
1F00
1F00
3F80
3F80
3FC0
3FC0
71E0
71E0
70E0
70E0
70E0
70E0
70E0
70E0
71E0
71E0
7FC0
7FC0
7F80
7F80
7FE0
7FE0
70F0
70F0
7078
7078
7038
7038
7038
7038
7038
7038
7038
7038
7038
7038
7078
7078
70F0
70F0
77F0
77F0
F7E0
F7E0
E380
E380
ENDCHAR
STARTCHAR 00E0.uni00E0
ENCODING 224
SWIDTH 609 0
DWIDTH 13 0
BBX 13 42 0 0
BITMAP
3800
3800
1C00
1C00
0E00
0E00
0700
0700
0000
0000
0000
0000
1FC0
1FC0
3FE0
3FE0
70F0
70F0
E070
E070
C070
C070
1F70
1F70
3FF0
3FF0
7FF0
7FF0
F0F0
F0F0
E070
E070
E070
E070
F0F0
F0F0
7FF0
7FF0
3FF8
3FF8
1F38
1F38
ENDCHAR
STARTCHAR 00E1.uni00E1
ENCODING 225
SWIDTH 609 0
DWIDTH 13 0
BBX 13 42 0 0
BITMAP
00E0
00E0
01C0
01C0
0380
0380
0700
0700
0000
0000
0000
0000
1FC0
1FC0
3FE0
3FE0
70F0
70F0
E070
E070
C070
C070
1F70
1F70
3FF0
3FF0
7FF0
7FF0
F0F0
F0F0
E070
E070
E070
E070
F0F0
F0F0
7FF0
7FF0
3FF8
3FF8
1F38
1F38
ENDCHAR
STARTCHAR 00E2.uni00E2
ENCODING 226
SWIDTH 609 0
DWIDTH 13 0
BBX 13 44 0 0
BITMAP
0200
0200
0700
0700
0F80
0F80
1DC0
1DC0
38E0
38E0
0000
0000
0000
0000
1FC0
1FC0
3FE0
3FE0
70F0
70F0
E070
E070
C070
C070
1F70
1F70
3FF0
3FF0
7FF0
7FF0
F0F0
F0F0
E070
E070
E070
E070
F0F0
F0F0
7FF0
7FF0
3FF8
3FF8
1F38
1F38
ENDCHAR
STARTCHAR 00E3.uni00E3
ENCODING 227
SWIDTH 609 0
DWIDTH 13 0
BBX 13 42 0 0
BITMAP
1C60
1C60
3E60
3E60
3760
3760
33E0
33E0
31C0
31C0
0000
0000
1FC0
1FC0
3FE0
3FE0
70F0
70F0
E070
E070
C070
C070
1F70
1F70
3FF0
3FF0
7FF0
7FF0
F0F0
F0F0
E070
E070
E070
E070
F0F0
F0F0
7FF0
7FF0
3FF8
3FF8
1F38
1F38
ENDCHAR
STARTCHAR 00E4.uni00E4
ENCODING 228
SWIDTH 609 0
DWIDTH 13 0
BBX 13 40 0 0
BITMAP
38E0
38E0
38E0
38E0
38E0
38E0
0000
0000
0000
0000
1FC0
1FC0
3FE0
3FE0
70F0
70F0
E070
E070
C070
C070
1F70
1F70
3FF0
3FF0
7FF0
7FF0
F0F0
F0F0
E070
E070
E070
E070
F0F0
F0F0
7FF0
7FF0
3FF8
3FF8
1F38
1F38
ENDCHAR
STARTCHAR 00E5.uni00E5
ENCODING 229
SWIDTH 609 0
DWIDTH 13 0
BBX 13 44 0 0
BITMAP
0700
0700
0F80
0F80
0D80
0D80
0F80
0F80
0700
0700
0000
0000
0000
0000
1FC0
1FC0
3FE0
3FE0
70F0
70F0
E070
E070
C070
C070
1F70
1F70
3FF0
3FF0
7FF0
7FF0
F0F0
F0F0
E070
E070
E070
E070
F0F0
F0F0
7FF0
7FF0
3FF8
3FF8
1F38
1F38
ENDCHAR
STARTCHAR 00E6.uni00E6
ENCODING 230
SWIDTH 609 0
DWIDTH 13 0
BBX 13 30 0 0
BITMAP
7CE0
7CE0
FFF0
FFF0
C738
C738
8618
8618
0618
0618
3FF8
3FF8
7FF8
7FF8
6600
6600
C600
C600
C600
C600
C600
C600
C618
C618
E738
E738
7FF0
7FF0
38E0
38E0
ENDCHAR
STARTCHAR 00E7.uni00E7
ENCODING 231
SWIDTH 609 0
DWIDTH 13 0
BBX 13 42 0 -12
BITMAP
0F80
0F80
1FC0
1FC0
3FE0
3FE0
78F0
78F0
7078
7078
E038
E038
E000
E000
E000
E000
E000
E000
E038
E038
7078
7078
78F0
78F0
3FE0
3FE0
1FC0
1FC0
0F80
0F80
0380
0380
0300
0300
1980
1980
18C0
18C0
0DC0
0DC0
07C0
07C0
ENDCHAR
STARTCHAR 00E8.uni00E8
ENCODING 232
SWIDTH 609 0
DWIDTH 13 0
BBX 13 42 0 0
BITMAP
3800
3800
1C00
1C00
0E00
0E00
0700
0700
0000
0000
0000
0000
0F80
0F80
1FC0
1FC0
3FE0
3FE0
78F0
78F0
7070
7070
E038
E038
FFF8
FFF8
FFF8
FFF8
FFF0
FFF0
E000
E000
7000
7000
78F0
78F0
3FE0
3FE0
1FC0
1FC0
0F80
0F80
ENDCHAR
STARTCHAR 00E9.uni00E9
ENCODING 233
SWIDTH 609 0
DWIDTH 13 0
BBX 13 42 0 0
BITMAP
00E0
00E0
01C0
01C0
0380
0380
0700
0700
0000
0000
0000
0000
0F80
0F80
1FC0
1FC0
3FE0
3FE0
78F0
78F0
7070
7070
E038
E038
FFF8
FFF8
FFF8
FFF8
FFF0
FFF0
E000
E000
7000
7000
78F0
78F0
3FE0
3FE0
1FC0
1FC0
0F80
0F80
ENDCHAR
STARTCHAR 00EA.uni00EA
ENCODING 234
SWIDTH 609 0
DWIDTH 13 0
BBX 13 44 0 0
BITMAP
0200
0200
0700
0700
0F80
0F80
1DC0
1DC0
38E0
38E0
0000
0000
0000
0000
0F80
0F80
1FC0
1FC0
3FE0
3FE0
78F0
78F0
7070
7070
E038
E038
FFF8
FFF8
FFF8
FFF8
FFF0
FFF0
E000
E000
7000
7000
78F0
78F0
3FE0
3FE0
1FC0
1FC0
0F80
0F80
ENDCHAR
STARTCHAR 00EB.uni00EB
ENCODING 235
SWIDTH 609 0
DWIDTH 13 0
BBX 13 38 0 0
BITMAP
0D80
0D80
0D80
0D80
0000
0000
0000
0000
0F80
0F80
1FC0
1FC0
3FE0
3FE0
78F0
78F0
7070
7070
E038
E038
FFF8
FFF8
FFF8
FFF8
FFF0
FFF0
E000
E000
7000
7000
78F0
78F0
3FE0
3FE0
1FC0
1FC0
0F80
0F80
ENDCHAR
STARTCHAR 00EC.uni00EC
ENCODING 236
SWIDTH 609 0
DWIDTH 13 0
BBX 9 42 2 0
BITMAP
E000
E000
7000
7000
3800
3800
1C00
1C00
0000
0000
0000
0000
FC00
FC00
FC00
FC00
1C00
1C00
1C00
1C00
1C00
1C00
1C00
1C00
1C00
1C00
1C00
1C00
1C00
1C00
1C00
1C00
1C00
1C00
1C00
1C00
1C00
1C00
FF80
FF80
FF80
FF80
ENDCHAR
STARTCHAR 00ED.uni00ED
ENCODING 237
SWIDTH 609 0
DWIDTH 13 0
BBX 9 42 2 0
BITMAP
0380
0380
0700
0700
0E00
0E00
1C00
1C00
0000
0000
0000
0000
FC00
FC00
FC00
FC00
1C00
1C00
1C00
1C00
1C00
1C00
1C00
1C00
1C00
1C00
1C00
1C00
1C00
1C00
1C00
1C00
1C00
1C00
1C00
1C00
1C00
1C00
FF80
FF80
FF80
FF80
ENDCHAR
STARTCHAR 00EE.uni00EE
ENCODING 238
SWIDTH 609 0
DWIDTH 13 0
BBX 10 44 1 0
BITMAP
0800
0800
1C00
1C00
3E00
3E00
7700
7700
E380
E380
0000
0000
0000
0000
7E00
7E00
7E00
7E00
0E00
0E00
0E00
0E00
0E00
0E00
0E00
0E00
0E00
0E00
0E00
0E00
0E00
0E00
0E00
0E00
0E00
0E00
0E00
0E00
0E00
0E00
7FC0
7FC0
7FC0
7FC0
ENDCHAR
STARTCHAR 00EF.uni00EF
ENCODING 239
SWIDTH 609 0
DWIDTH 13 0
BBX 9 40 2 0
BITMAP
E380
E380
E380
E380
E380
E380
0000
0000
0000
0000
FC00
FC00
FC00
FC00
1C00
1C00
1C00
1C00
1C00
1C00
1C00
1C00
1C00
1C00
1C00
1C00
1C00
1C00
1C00
1C00
1C00
1C00
1C00
1C00
1C00
1C00
FF80
FF80
FF80
FF80
ENDCHAR
STARTCHAR 00F0.uni00F0
ENCODING 240
SWIDTH 609 0
DWIDTH 13 0
BBX 13 46 0 0
BITMAP
0180
0180
0380
0380
7B00
7B00
FF00
FF00
9F80
9F80
37C0
37C0
31C0
31C0
00E0
00E0
07E0
07E0
1FE0
1FE0
3FF0
3FF0
78F0
78F0
7070
7070
E038
E038
E038
E038
E038
E038
E038
E038
E038
E038
7070
7070
78F0
78F0
3FE0
3FE0
1FC0
1FC0
0F80
0F80
ENDCHAR
STARTCHAR 00F1.uni00F1
ENCODING 241
SWIDTH 609 0
DWIDTH 13 0
BBX 15 42 -1 0
BITMAP
0E30
0E30
1F30
1F30
1BB0
1BB0
19F0
19F0
18E0
18E0
0000
0000
F7C0
F7C0
FFE0
FFE0
7FF0
7FF0
7C78
7C78
7838
7838
701C
701C
701C
701C
701C
701C
701C
701C
701C
701C
701C
701C
701C
701C
701C
701C
F83E
F83E
F83E
F83E
ENDCHAR
STARTCHAR 00F2.uni00F2
ENCODING 242
SWIDTH 609 0
DWIDTH 13 0
BBX 13 42 0 0
BITMAP
3800
3800
1C00
1C00
0E00
0E00
0700
0700
0000
0000
0000
0000
0F80
0F80
1FC0
1FC0
3FE0
3FE0
78F0
78F0
7070
7070
E038
E038
E038
E038
E038
E038
E038
E038
E038
E038
7070
7070
78F0
78F0
3FE0
3FE0
1FC0
1FC0
0F80
0F80
ENDCHAR
STARTCHAR 00F3.uni00F3
ENCODING 243
SWIDTH 609 0
DWIDTH 13 0
BBX 13 42 0 0
BITMAP
00E0
00E0
01C0
01C0
0380
0380
0700
0700
0000
0000
0000
0000
0F80
0F80
1FC0
1FC0
3FE0
3FE0
78F0
78F0
7070
7070
E038
E038
E038
E038
E038
E038
E038
E038
E038
E038
7070
7070
78F0
78F0
3FE0
3FE0
1FC0
1FC0
0F80
0F80
ENDCHAR
STARTCHAR 00F4.uni00F4
ENCODING 244
SWIDTH 609 0
DWIDTH 13 0
BBX 13 44 0 0
BITMAP
0200
0200
0700
0700
0F80
0F80
1DC0
1DC0
38E0
38E0
0000
0000
0000
0000
0F80
0F80
1FC0
1FC0
3FE0
3FE0
78F0
78F0
7070
7070
E038
E038
E038
E038
E038
E038
E038
E038
E038
E038
7070
7070
78F0
78F0
3FE0
3FE0
1FC0
1FC0
0F80
0F80
ENDCHAR
STARTCHAR 00F5.uni00F5
ENCODING 245
SWIDTH 609 0
DWIDTH 13 0
BBX 13 42 0 0
BITMAP
0738
0738
0E70
0E70
1CE0
1CE0
39C0
39C0
0000
0000
0000
0000
0F80
0F80
1FC0
1FC0
3FE0
3FE0
78F0
78F0
7070
7070
E038
E038
E038
E038
E038
E038
E038
E038
E038
E038
7070
7070
78F0
78F0
3FE0
3FE0
1FC0
1FC0
0F80
0F80
ENDCHAR
STARTCHAR 00F6.uni00F6
ENCODING 246
SWIDTH 609 0
DWIDTH 13 0
BBX 13 40 0 0
BITMAP
38E0
38E0
38E0
38E0
38E0
38E0
0000
0000
0000
0000
0F80
0F80
1FC0
1FC0
3FE0
3FE0
78F0
78F0
7070
7070
E038
E038
E038
E038
E038
E038
E038
E038
E038
E038
7070
7070
78F0
78F0
3FE0
3FE0
1FC0
1FC0
0F80
0F80
ENDCHAR
STARTCHAR 00F7.uni00F7
ENCODING 247
SWIDTH 609 0
DWIDTH 13 0
BBX 11 28 1 4
BITMAP
0E00
0E00
0E00
0E00
0E00
0E00
0000
0000
0000
0000
FFE0
FFE0
FFE0
FFE0
FFE0
FFE0
FFE0
FFE0
0000
0000
0000
0000
0E00
0E00
0E00
0E00
0E00
0E00
ENDCHAR
STARTCHAR 00F8.uni00F8
ENCODING 248
SWIDTH 609 0
DWIDTH 13 0
BBX 13 30 0 0
BITMAP
0F98
0F98
1FD8
1FD8
3FF0
3FF0
78F0
78F0
70F0
70F0
E1F8
E1F8
E3B8
E3B8
E738
E738
EE38
EE38
FC38
FC38
7870
7870
78F0
78F0
7FE0
7FE0
DFC0
DFC0
CF80
CF80
ENDCHAR
STARTCHAR 00F9.uni00F9
ENCODING 249
SWIDTH 609 0
DWIDTH 13 0
BBX 15 42 -1 0
BITMAP
1C00
1C00
0E00
0E00
0700
0700
0380
0380
0000
0000
0000
0000
F03C
F03C
F03C
F03C
701C
701C
701C
701C
701C
701C
701C
701C
701C
701C
701C
701C
701C
701C
701C
701C
383C
383C
3C7C
3C7C
1FFC
1FFC
0FFE
0FFE
07DE
07DE
ENDCHAR
STARTCHAR 00FA.uni00FA
ENCODING 250
SWIDTH 609 0
DWIDTH 13 0
BBX 15 42 -1 0
BITMAP
00E0
00E0
01C0
01C0
0380
0380
0700
0700
0000
0000
0000
0000
F03C
F03C
F03C
F03C
701C
701C
701C
701C
701C
701C
701C
701C
701C
701C
701C
701C
701C
701C
701C
701C
383C
383C
3C7C
3C7C
1FFC
1FFC
0FFE
0FFE
07DE
07DE
ENDCHAR
STARTCHAR 00FB.uni00FB
ENCODING 251
SWIDTH 609 0
DWIDTH 13 0
BBX 15 42 -1 0
BITMAP
039C
039C
0738
0738
0E70
0E70
1CE0
1CE0
0000
0000
0000
0000
F03C
F03C
F03C
F03C
701C
701C
701C
701C
701C
701C
701C
701C
701C
701C
701C
701C
701C
701C
701C
701C
383C
383C
3C7C
3C7C
1FFC
1FFC
0FFE
0FFE
07DE
07DE
ENDCHAR
STARTCHAR 00FC.uni00FC
ENCODING 252
SWIDTH 609 0
DWIDTH 13 0
BBX 15 40 -1 0
BITMAP
1CE0
1CE0
1CE0
1CE0
1CE0
1CE0
0000
0000
0000
0000
F03C
F03C
F03C
F03C
701C
701C
701C
701C
701C
701C
701C
701C
701C
701C
701C
701C
701C
701C
701C
701C
383C
383C
3C7C
3C7C
1FFC
1FFC
0FFE
0FFE
07DE
07DE
ENDCHAR
STARTCHAR 00FD.uni00FD
ENCODING 253
SWIDTH 609 0
DWIDTH 13 0
BBX 15 54 -1 -12
BITMAP
1C00
1C00
0E00
0E00
0700
0700
0380
0380
0000
0000
0000
0000
F83E
F83E
F83E
F83E
701C
701C
3838
3838
3838
3838
3838
3838
1C70
1C70
1C70
1C70
1C70
1C70
0EE0
0EE0
0EE0
0EE0
0EE0
0EE0
07C0
07C0
07C0
07C0
07C0
07C0
0380
0380
0380
0380
0380
0380
0700
0700
0F00
0F00
0F00
0F00
ENDCHAR
STARTCHAR 00FE.uni00FE
ENCODING 254
SWIDTH 609 0
DWIDTH 13 0
BBX 11 30 0 0
BITMAP
FF00
FF00
FF00
FF00
7000
7000
7000
7000
7FC0
7FC0
7FE0
7FE0
70E0
70E0
70E0
70E0
7FE0
7FE0
7FC0
7FC0
7000
7000
7000
7000
7000
7000
FF00
FF00
FF00
FF00
ENDCHAR
STARTCHAR 00FF.uni00FF
ENCODING 255
SWIDTH 609 0
DWIDTH 13 0
BBX 15 52 -1 -12
BITMAP
1C70
1C70
1C70
1C70
1C70
1C70
0000
0000
0000
0000
F83E
F83E
F83E
F83E
701C
701C
3838
3838
3838
3838
3838
3838
1C70
1C70
1C70
1C70
1C70
1C70
0EE0
0EE0
0EE0
0EE0
0EE0
0EE0
07C0
07C0
07C0
07C0
07C0
07C0
0380
0380
0380
0380
0380
0380
0700
0700
0F00
0F00
0F00
0F00
ENDCHAR
ENDFONT
